<?xml version="1.0" encoding="UTF-8" standalone="no"?>
<svg
   width="24"
   height="24"
   viewBox="0 0 24 24"
   fill="none"
   version="1.1"
   id="svg1138"
   sodipodi:docname="adaway.svg"
   inkscape:version="1.2.1 (9c6d41e410, 2022-07-14)"
   xmlns:inkscape="http://www.inkscape.org/namespaces/inkscape"
   xmlns:sodipodi="http://sodipodi.sourceforge.net/DTD/sodipodi-0.dtd"
   xmlns="http://www.w3.org/2000/svg"
   xmlns:svg="http://www.w3.org/2000/svg">
  <defs
     id="defs1142" />
  <sodipodi:namedview
     id="namedview1140"
     pagecolor="#ffffff"
     bordercolor="#000000"
     borderopacity="0.25"
     inkscape:showpageshadow="2"
     inkscape:pageopacity="0.0"
     inkscape:pagecheckerboard="0"
     inkscape:deskcolor="#d1d1d1"
     showgrid="true"
     inkscape:zoom="55.625733"
     inkscape:cx="7.6043942"
     inkscape:cy="10.336942"
     inkscape:window-width="3072"
     inkscape:window-height="1694"
     inkscape:window-x="1499"
     inkscape:window-y="-11"
     inkscape:window-maximized="1"
     inkscape:current-layer="svg1138">
    <inkscape:grid
       type="xygrid"
       id="grid1261" />
  </sodipodi:namedview>
  <path
     fill-rule="evenodd"
     clip-rule="evenodd"
     d="M 1.767923,2.1351483 C 0.34471103,1.7737563 -0.33147707,1.6020603 0.15855503,2.1558003 l 0.034212,0.014364 C 1.012643,3.7369084 1.649999,3.9175684 2.9042751,4.2731044 c 0.567036,0.160728 1.260168,0.357204 2.153256,0.733644 2.0646121,0.3006841 -3.0618601,1.2220081 -3.4552801,0.7717681 0.35046,1.510104 1.7450641,1.560864 2.8886761,1.60248 0.285324,0.01038 0.555012,0.020196 0.788976,0.05196 1.0247881,0.201912 0.6140161,0.4549681 0.048492,0.8033401 -0.757884,0.466884 -1.793676,1.1049605 -0.024552,2.0205844 0.05646,0.1746 0.091104,0.38364 0.1287601,0.61104 0.1803,1.08816 0.429744,2.59368 3.4719239,2.7252 0.834912,0.03588 1.7035919,-0.06696 2.4685919,-0.15756 1.27572,-0.15108 2.26356,-0.26808 2.32776,0.34848 0.05364,0.50196 -0.67212,0.91368 -2.1804,1.76904 -0.9918,0.56256 -2.3218919,1.317 -3.9912238,2.41512 -1.15392,0.8844 -0.256704,1.24404 0.5022239,1.54812 0.411084,0.16476 0.781596,0.3132 0.763572,0.52008 0.635088,0.99204 1.150788,0.75948 1.6097879,0.55236 0.36696,-0.16548 0.69768,-0.31464 1.02444,0.19068 0.38316,0.5616 1.17684,1.40484 1.87128,1.38888 l 1.1718,0.03168 c 0,-1.50816 0.49944,-3.15948 1.38888,-3.9486 0.77832,-0.80016 1.56024,-1.35192 2.278321,-1.85868 1.85748,-1.31064 3.28764,-2.31984 3.1236,-6.5479199 C 21.28536,7.7463605 22.86252,5.2772525 24,5.2199765 23.68392,5.0844244 23.382,4.8074524 23.05212,4.5048724 c -0.01464,-0.013464 -0.0294,-0.026988 -0.04428,-0.040548 -0.31812,-0.292728 -1.58556,-1.30782 -2.45112,-1.190088 -0.6474,0.131772 -1.24788,0.888372 -1.79316,1.575528 -0.40272,0.5074921 -0.77544,0.9771121 -1.1148,1.1291761 -1.716481,0.768288 -2.189161,0.337212 -3.318241,-0.69246 -0.16152,-0.1472881 -0.33648,-0.3068281 -0.5304,-0.4768561 -0.69108,-0.672972 -1.61988,-1.336548 -4.0831199,-1.476552 C 6.4509112,3.3242644 3.5341671,2.5836364 1.767923,2.1351483 Z M 21.47016,5.1499205 c 0,0.223176 -0.19452,0.403944 -0.43452,0.403944 -0.24,0 -0.43452,-0.180768 -0.43452,-0.403944 0,-0.2231761 0.19452,-0.4041481 0.43452,-0.4041481 0.24,0 0.43452,0.180972 0.43452,0.4041481 z"
     fill="#FFF1C0"
     id="path1136"
     style="fill:#000000;stroke-width:1.2" />
</svg>
