<?xml version="1.0" encoding="UTF-8" standalone="no"?>
<!-- Created with Inkscape (http://www.inkscape.org/) -->

<svg
   viewBox="0 0 24 24"
   version="1.1"
   id="svg5"
   inkscape:version="1.2.1 (9c6d41e410, 2022-07-14)"
   sodipodi:docname="amazon_shopping.svg"
   xmlns:inkscape="http://www.inkscape.org/namespaces/inkscape"
   xmlns:sodipodi="http://sodipodi.sourceforge.net/DTD/sodipodi-0.dtd"
   xmlns="http://www.w3.org/2000/svg"
   xmlns:svg="http://www.w3.org/2000/svg">
  <sodipodi:namedview
     id="namedview7"
     pagecolor="#ffffff"
     bordercolor="#000000"
     borderopacity="1"
     inkscape:pageshadow="2"
     inkscape:pageopacity="1"
     inkscape:pagecheckerboard="0"
     inkscape:document-units="px"
     showgrid="true"
     inkscape:object-nodes="false"
     inkscape:showpageshadow="false"
     inkscape:snap-page="true"
     units="px"
     inkscape:zoom="50.246468"
     inkscape:cx="15.125441"
     inkscape:cy="12.538195"
     inkscape:window-width="3072"
     inkscape:window-height="1694"
     inkscape:window-x="-11"
     inkscape:window-y="-11"
     inkscape:window-maximized="1"
     inkscape:current-layer="svg5"
     inkscape:deskcolor="#d1d1d1">
    <inkscape:grid
       type="xygrid"
       id="grid294" />
  </sodipodi:namedview>
  <defs
     id="defs2">
    <inkscape:path-effect
       effect="powerclip"
       id="path-effect1366"
       is_visible="true"
       lpeversion="1"
       inverse="true"
       flatten="false"
       hide_clip="false"
       message="Use fill-rule evenodd on &lt;b&gt;fill and stroke&lt;/b&gt; dialog if no flatten result after convert clip to paths." />
    <clipPath
       clipPathUnits="userSpaceOnUse"
       id="clipPath1362">
      <path
         id="path1364"
         style="display:none;fill:#000000;fill-opacity:1;fill-rule:evenodd;stroke:none;stroke-width:0.328143;stroke-dasharray:none"
         d="m 20.535157,9.7519547 c -0.698048,0.0096 -1.522272,0.1665226 -2.146484,0.6054673 -0.193067,0.134052 -0.161611,0.319143 0.05273,0.292968 0.70357,-0.08337 2.272623,-0.270446 2.550782,0.08594 0.27979,0.358014 -0.310793,1.831094 -0.574218,2.488278 -0.08018,0.199445 0.09151,0.279311 0.271485,0.128909 1.173164,-0.979242 1.473252,-3.032228 1.234374,-3.328125 C 21.804381,9.8782594 21.233206,9.7423498 20.535157,9.7519547 Z M 2.314453,10.177734 c -0.2464319,-0.144447 -0.4319211,0.109437 -0.2265623,0.294924 2.6138123,2.358763 6.0684964,3.77539 9.9062483,3.77539 2.737027,0 5.91614,-0.861376 8.109375,-2.476564 0.363075,-0.269198 0.05293,-0.669298 -0.318357,-0.511718 -2.457739,1.042319 -5.130739,1.54492 -7.560547,1.54492 -3.6028221,0 -7.0893436,-0.98714 -9.910157,-2.626952 z" />
      <path
         id="lpe_path-effect1366"
         style="fill:#000000;fill-opacity:1;fill-rule:evenodd;stroke:none;stroke-width:0.328143;stroke-dasharray:none"
         class="powerclip"
         d="M -5,-5 H 29 V 29 H -5 Z M 20.535157,9.7519547 c -0.698048,0.0096 -1.522272,0.1665226 -2.146484,0.6054673 -0.193067,0.134052 -0.161611,0.319143 0.05273,0.292968 0.70357,-0.08337 2.272623,-0.270446 2.550782,0.08594 0.27979,0.358014 -0.310793,1.831094 -0.574218,2.488278 -0.08018,0.199445 0.09151,0.279311 0.271485,0.128909 1.173164,-0.979242 1.473252,-3.032228 1.234374,-3.328125 C 21.804381,9.8782594 21.233206,9.7423498 20.535157,9.7519547 Z M 2.314453,10.177734 c -0.2464319,-0.144447 -0.4319211,0.109437 -0.2265623,0.294924 2.6138123,2.358763 6.0684964,3.77539 9.9062483,3.77539 2.737027,0 5.91614,-0.861376 8.109375,-2.476564 0.363075,-0.269198 0.05293,-0.669298 -0.318357,-0.511718 -2.457739,1.042319 -5.130739,1.54492 -7.560547,1.54492 -3.6028221,0 -7.0893436,-0.98714 -9.910157,-2.626952 z" />
    </clipPath>
  </defs>
  <rect
     style="fill:#000000;stroke:none;stroke-width:0.330225;stroke-dasharray:none;stroke-opacity:0"
     id="rect291"
     width="24"
     height="24"
     x="0"
     y="0"
     clip-path="url(#clipPath1362)"
     inkscape:path-effect="#path-effect1366"
     d="M 0,0 H 24 V 24 H 0 Z" />
</svg>
