<?xml version="1.0" encoding="UTF-8" standalone="no"?>
<!-- Created with Inkscape (http://www.inkscape.org/) -->

<svg
   viewBox="0 0 24 24"
   version="1.1"
   id="svg5"
   inkscape:version="1.2.1 (9c6d41e410, 2022-07-14)"
   sodipodi:docname="amazon_shopping.svg"
   xmlns:inkscape="http://www.inkscape.org/namespaces/inkscape"
   xmlns:sodipodi="http://sodipodi.sourceforge.net/DTD/sodipodi-0.dtd"
   xmlns="http://www.w3.org/2000/svg"
   xmlns:svg="http://www.w3.org/2000/svg">
  <sodipodi:namedview
     id="namedview7"
     pagecolor="#ffffff"
     bordercolor="#000000"
     borderopacity="1"
     inkscape:pageshadow="2"
     inkscape:pageopacity="1"
     inkscape:pagecheckerboard="0"
     inkscape:document-units="px"
     showgrid="true"
     inkscape:object-nodes="false"
     inkscape:showpageshadow="false"
     inkscape:snap-page="true"
     units="px"
     inkscape:zoom="50.246468"
     inkscape:cx="13.393976"
     inkscape:cy="12.577999"
     inkscape:window-width="3072"
     inkscape:window-height="1694"
     inkscape:window-x="1499"
     inkscape:window-y="-11"
     inkscape:window-maximized="1"
     inkscape:current-layer="svg5"
     inkscape:deskcolor="#d1d1d1">
    <inkscape:grid
       type="xygrid"
       id="grid294" />
  </sodipodi:namedview>
  <defs
     id="defs2">
    <inkscape:path-effect
       effect="powerclip"
       id="path-effect1366"
       is_visible="true"
       lpeversion="1"
       inverse="true"
       flatten="false"
       hide_clip="false"
       message="Use fill-rule evenodd on &lt;b&gt;fill and stroke&lt;/b&gt; dialog if no flatten result after convert clip to paths." />
  </defs>
  <path
     id="path1364"
     style="display:block;fill:#000000;fill-opacity:1;fill-rule:evenodd;stroke:none;stroke-width:0.393767;stroke-dasharray:none"
     d="m 22.242296,9.3026642 c -0.837648,0.01152 -1.826705,0.1998247 -2.57575,0.7265518 -0.231678,0.16086 -0.193931,0.382967 0.06328,0.351557 0.844274,-0.100042 2.727115,-0.324531 3.060902,0.103127 0.335744,0.429612 -0.372947,2.197287 -0.689054,2.985898 -0.09621,0.239331 0.109811,0.33517 0.325779,0.154689 1.40778,-1.175076 1.767881,-3.6386296 1.481231,-3.9937016 C 23.765347,9.454228 23.079945,9.2911384 22.242296,9.3026642 Z M 0.37771031,9.8135934 c -0.2957148,-0.173334 -0.5182992,0.131323 -0.2718715,0.3539036 3.13653749,2.830482 7.28210929,4.530415 11.88735719,4.530415 3.284393,0 7.099284,-1.033639 9.731134,-2.971842 0.435685,-0.323034 0.06352,-0.803148 -0.382024,-0.614054 -2.949251,1.250768 -6.156813,1.853882 -9.072548,1.853882 -4.3233356,0 -8.5071118,-1.184554 -11.89204769,-3.1523046 z" />
</svg>
