<?xml version="1.0" encoding="UTF-8" standalone="no"?>
<svg
   height="24"
   viewBox="2.167 0.438 2.4099648 2.4957024"
   width="24"
   version="1.1"
   id="svg12"
   sodipodi:docname="amazon_shopping.svg"
   inkscape:version="1.2.1 (9c6d41e410, 2022-07-14)"
   xmlns:inkscape="http://www.inkscape.org/namespaces/inkscape"
   xmlns:sodipodi="http://sodipodi.sourceforge.net/DTD/sodipodi-0.dtd"
   xmlns="http://www.w3.org/2000/svg"
   xmlns:svg="http://www.w3.org/2000/svg">
  <defs
     id="defs16" />
  <sodipodi:namedview
     id="namedview14"
     pagecolor="#ffffff"
     bordercolor="#000000"
     borderopacity="0.25"
     inkscape:showpageshadow="2"
     inkscape:pageopacity="0.0"
     inkscape:pagecheckerboard="0"
     inkscape:deskcolor="#d1d1d1"
     showgrid="false"
     inkscape:zoom="24.1664"
     inkscape:cx="9.1035488"
     inkscape:cy="13.655323"
     inkscape:window-width="3072"
     inkscape:window-height="1694"
     inkscape:window-x="1499"
     inkscape:window-y="-11"
     inkscape:window-maximized="1"
     inkscape:current-layer="svg12" />
  <path
     d="M 4.313212,2.4789783 C 3.2516776,2.9841794 2.5928776,2.561492 2.1711588,2.304761 c -0.026096,-0.01618 -0.070449,0.00378 -0.031966,0.047985 0.1404954,0.1703539 0.6009291,0.5809564 1.201929,0.5809564 0.6014135,0 0.959199,-0.3281593 1.0039563,-0.3854045 0.044455,-0.056761 0.013053,-0.088072 -0.031875,-0.06932 z M 4.6113413,2.3143338 C 4.5828343,2.2772128 4.4380016,2.2702928 4.346853,2.2814898 c -0.09129,0.010874 -0.2283153,0.066667 -0.2164023,0.1001668 0.00611,0.012549 0.018591,0.00691 0.081304,0.00128 0.062884,-0.00628 0.2390482,-0.028507 0.2757558,0.019478 0.036879,0.048318 -0.056186,0.2784895 -0.073183,0.3156107 -0.016423,0.037121 0.00628,0.046694 0.037121,0.02197 0.030423,-0.024714 0.0855,-0.088718 0.1224594,-0.1792912 0.036708,-0.091068 0.059092,-0.2181071 0.037424,-0.2463716 z"
     fill="#ff9900"
     fill-rule="nonzero"
     id="path2"
     style="fill:#000000;stroke-width:0.0100873" />
  <path
     d="m 3.5612476,1.5243188 c 0,0.1325569 0.00335,0.2431033 -0.063651,0.3608218 -0.054078,0.095718 -0.139739,0.1545774 -0.2354471,0.1545774 -0.1306504,0 -0.2067386,-0.099541 -0.2067386,-0.2464523 0,-0.2900091 0.2598481,-0.3426446 0.5058365,-0.3426446 z m 0.3431186,0.8293354 c -0.022494,0.020094 -0.055036,0.021536 -0.080396,0.00813 C 3.7110335,2.267993 3.6909296,2.2244462 3.6287214,2.134952 3.4420866,2.3254199 3.3100037,2.3823626 3.0678588,2.3823626 c -0.286176,0 -0.5091855,-0.1765879 -0.5091855,-0.5302377 0,-0.2761189 0.149796,-0.4641962 0.3627383,-0.5560711 0.1847284,-0.081364 0.44267,-0.095718 0.639836,-0.1182026 v -0.044031 c 0,-0.080879 0.00621,-0.17658783 -0.041156,-0.24645223 -0.041641,-0.062693 -0.1210776,-0.088536 -0.1909521,-0.088536 -0.129682,0 -0.2454941,0.066515 -0.2737283,0.20433793 -0.00575,0.030635 -0.028235,0.060786 -0.058859,0.062218 L 2.6663448,1.0299818 c -0.02775,-0.00623 -0.058376,-0.028719 -0.050719,-0.071317 C 2.6917138,0.55860346 3.0530099,0.438 3.3765088,0.438 c 0.1655827,0 0.3818842,0.044031 0.5125345,0.16941579 0.165583,0.15456731 0.1497862,0.36082178 0.1497862,0.58526371 v 0.5302376 c 0,0.1593588 0.066042,0.2292233 0.1282497,0.3153686 0.02201,0.030625 0.026802,0.067483 -9.583e-4,0.090443 -0.069391,0.057901 -0.1928586,0.1655827 -0.2608064,0.2258844 l -9.583e-4,-9.583e-4"
     fill="#000000"
     id="path4"
     style="fill:#000000;fill-rule:evenodd;stroke-width:0.0100873" />
</svg>
