<?xml version="1.0" encoding="UTF-8" standalone="no"?>
<svg
   width="24"
   height="24"
   viewBox="0 0 24 24"
   fill="none"
   version="1.1"
   id="svg6"
   sodipodi:docname="calculator.svg"
   inkscape:version="1.2.1 (9c6d41e410, 2022-07-14)"
   xmlns:inkscape="http://www.inkscape.org/namespaces/inkscape"
   xmlns:sodipodi="http://sodipodi.sourceforge.net/DTD/sodipodi-0.dtd"
   xmlns="http://www.w3.org/2000/svg"
   xmlns:svg="http://www.w3.org/2000/svg">
  <defs
     id="defs10">
    <inkscape:path-effect
       effect="fillet_chamfer"
       id="path-effect10206"
       is_visible="true"
       lpeversion="1"
       satellites_param="F,0,0,1,0,2,0,1 @ F,0,0,1,0,2,0,1 @ F,0,0,1,0,2,0,1 @ F,0,0,1,0,2,0,1 @ F,0,0,1,0,0,0,1 @ F,0,0,1,0,0,0,1 @ F,0,0,1,0,0,0,1 @ F,0,1,1,0,0,0,1"
       unit="px"
       method="auto"
       mode="F"
       radius="0"
       chamfer_steps="1"
       flexible="false"
       use_knot_distance="true"
       apply_no_radius="true"
       apply_with_radius="true"
       only_selected="true"
       hide_knots="false"
       nodesatellites_param="F,0,0,1,0,2,0,1 @ F,0,0,1,0,2,0,1 @ F,0,0,1,0,2,0,1 @ F,0,0,1,0,2,0,1 @ F,0,0,1,0,0,0,1 @ F,0,0,1,0,0,0,1 @ F,0,0,1,0,0,0,1 @ F,0,1,1,0,0,0,1" />
    <inkscape:path-effect
       effect="fillet_chamfer"
       id="path-effect3719"
       is_visible="true"
       lpeversion="1"
       satellites_param="F,0,0,1,0,0,0,1 @ F,0,0,1,0,2,0,1 @ F,0,0,1,0,2,0,1 @ IF,0,0,1,0,0,0,1 @ IF,0,0,1,0,0,0,1 @ IF,0,0,1,0,0,0,1 @ IF,0,0,1,0,0,0,1 @ F,0,0,1,0,0,0,1 @ F,0,1,1,0,1.804331,0,1 @ F,0,1,1,0,0,0,1"
       unit="px"
       method="auto"
       mode="F"
       radius="2"
       chamfer_steps="1"
       flexible="false"
       use_knot_distance="true"
       apply_no_radius="true"
       apply_with_radius="true"
       only_selected="true"
       hide_knots="false"
       nodesatellites_param="F,0,0,1,0,0,0,1 @ F,0,0,1,0,2,0,1 @ F,0,0,1,0,2,0,1 @ IF,0,0,1,0,0,0,1 @ IF,0,0,1,0,0,0,1 @ IF,0,0,1,0,0,0,1 @ IF,0,0,1,0,0,0,1 @ F,0,0,1,0,0,0,1 @ F,0,1,1,0,1.804331,0,1 @ F,0,1,1,0,0,0,1" />
    <inkscape:path-effect
       effect="bspline"
       id="path-effect3717"
       is_visible="true"
       lpeversion="1"
       weight="33.333333"
       steps="2"
       helper_size="0"
       apply_no_weight="true"
       apply_with_weight="true"
       only_selected="false" />
  </defs>
  <sodipodi:namedview
     id="namedview8"
     pagecolor="#ffffff"
     bordercolor="#666666"
     borderopacity="1.0"
     inkscape:pageshadow="2"
     inkscape:pageopacity="0.0"
     inkscape:pagecheckerboard="0"
     showgrid="true"
     objecttolerance="20"
     guidetolerance="10000"
     inkscape:zoom="31.989511"
     inkscape:cx="-6.2520493"
     inkscape:cy="12.941742"
     inkscape:window-width="3072"
     inkscape:window-height="1694"
     inkscape:window-x="-11"
     inkscape:window-y="-11"
     inkscape:window-maximized="1"
     inkscape:current-layer="svg6"
     inkscape:showpageshadow="2"
     inkscape:deskcolor="#d1d1d1">
    <inkscape:grid
       type="xygrid"
       id="grid358"
       empspacing="1" />
  </sodipodi:namedview>
  <g
     id="g1872"
     transform="translate(-0.02740925,0.01679915)">
    <path
       id="path"
       d="m 17.321527,1.9832007 c -2.598823,0 -4.705881,2.1070588 -4.705881,4.7058827 0,2.5988228 2.107058,4.7058816 4.705881,4.7058816 2.598823,0 4.705882,-2.1070588 4.705882,-4.7058816 0,-2.5988239 -2.107059,-4.7058827 -4.705882,-4.7058827 z M 16.074468,8.7684944 15.242115,7.9367303 16.489763,6.6890834 15.242115,5.4408477 16.073879,4.6090831 17.322115,5.8573182 18.569763,4.6090831 19.402114,5.4408477 18.15388,6.6890834 19.401528,7.9367303 18.569763,8.7684944 17.322115,7.5208476 Z"
       fill="none"
       fill-rule="evenodd"
       style="fill:#000000;stroke-width:0.588236" />
    <path
       id="path_1"
       d="m 6.7332916,1.9832007 c -2.5988234,0 -4.7058821,2.1070588 -4.7058821,4.7058827 0,2.5988228 2.1070587,4.7058816 4.7058821,4.7058816 2.5988236,0 4.7058824,-2.1070588 4.7058824,-4.7058816 0,-2.5988239 -2.1070588,-4.7058827 -4.7058824,-4.7058827 z M 9.0862328,7.2773188 V 6.1008479 H 4.3803505 v 1.1764709 z"
       fill="none"
       fill-rule="evenodd"
       style="fill:#000000;stroke-width:0.588236" />
    <path
       id="path_2"
       d="m 6.7332916,12.571436 c -2.5988234,0 -4.7058821,2.10706 -4.7058821,4.705882 0,2.598823 2.1070587,4.705883 4.7058821,4.705883 2.5988236,0 4.7058824,-2.10706 4.7058824,-4.705883 0,-2.598822 -2.1070588,-4.705882 -4.7058824,-4.705882 z m 0.5882353,5.294118 V 19.63026 H 6.1450565 v -1.764706 h -1.764706 v -1.176472 h 1.764706 v -1.764705 h 1.1764704 v 1.764705 h 1.7647059 v 1.176472 z"
       fill="none"
       fill-rule="evenodd"
       style="fill:#000000;stroke-width:0.588236" />
    <path
       id="path_3"
       d="m 17.321527,12.571436 c -2.598823,0 -4.705881,2.10706 -4.705881,4.705882 0,2.598823 2.107058,4.705883 4.705881,4.705883 2.598823,0 4.705882,-2.10706 4.705882,-4.705883 0,-2.598822 -2.107059,-4.705882 -4.705882,-4.705882 z m 2.352942,2.941177 v 1.176469 h -4.705883 v -1.176469 z m 0,2.352941 v 1.176471 h -4.705883 v -1.176471 z"
       fill="none"
       fill-rule="evenodd"
       style="fill:#000000;stroke-width:0.588236" />
  </g>
</svg>
