<?xml version="1.0" encoding="UTF-8" standalone="no"?>
<svg
   width="24"
   height="24"
   viewBox="0 0 24 24"
   fill="none"
   version="1.1"
   id="svg2039"
   sodipodi:docname="dialer.svg"
   inkscape:version="1.2.1 (9c6d41e410, 2022-07-14)"
   xmlns:inkscape="http://www.inkscape.org/namespaces/inkscape"
   xmlns:sodipodi="http://sodipodi.sourceforge.net/DTD/sodipodi-0.dtd"
   xmlns="http://www.w3.org/2000/svg"
   xmlns:svg="http://www.w3.org/2000/svg">
  <defs
     id="defs2043" />
  <sodipodi:namedview
     id="namedview2041"
     pagecolor="#ffffff"
     bordercolor="#000000"
     borderopacity="0.25"
     inkscape:showpageshadow="2"
     inkscape:pageopacity="0.0"
     inkscape:pagecheckerboard="0"
     inkscape:deskcolor="#d1d1d1"
     showgrid="true"
     inkscape:zoom="55.625733"
     inkscape:cx="6.7235069"
     inkscape:cy="11.41558"
     inkscape:window-width="3072"
     inkscape:window-height="1694"
     inkscape:window-x="1499"
     inkscape:window-y="-11"
     inkscape:window-maximized="1"
     inkscape:current-layer="svg2039">
    <inkscape:grid
       type="xygrid"
       id="grid2162"
       originx="0"
       originy="0" />
  </sodipodi:namedview>
  <path
     d="m 3.1998039,0.90435607 c -1.3319087,0 -2.42538341,1.08290883 -2.28327821,2.40720593 0.55780791,5.1985529 2.90143661,9.862676 6.40528281,13.366612 3.5038605,3.503786 8.1677555,5.847432 13.3663095,6.405268 1.324282,0.142135 2.407551,-0.951385 2.407551,-2.283202 v -2.426093 c 0,-1.064881 -0.698465,-2.004058 -1.718582,-2.310034 l -2.931022,-0.577582 c -0.849646,-0.254879 -1.770736,-0.02261 -2.398059,0.604717 l -1.459182,1.459178 C 12.841905,16.655866 11.254214,15.494823 9.8797404,14.120348 8.5052664,12.745874 7.3440409,11.158121 6.4495394,9.4112779 L 7.9088269,7.9519906 C 8.5361654,7.3246522 8.7684344,6.4033978 8.5134964,5.5536179 L 7.9356121,2.6229841 C 7.6295917,1.6029133 6.6908377,0.90435607 5.6258498,0.90435607 Z"
     stroke="#000000"
     stroke-width="1.80871"
     stroke-linejoin="round"
     id="path2037"
     style="fill:#000000;fill-opacity:1" />
</svg>
