<?xml version="1.0" encoding="UTF-8" standalone="no"?>
<svg
   width="24"
   height="24"
   viewBox="0 0 24 24"
   fill="none"
   version="1.1"
   id="svg2039"
   sodipodi:docname="dialer.svg"
   inkscape:version="1.2.1 (9c6d41e410, 2022-07-14)"
   xmlns:inkscape="http://www.inkscape.org/namespaces/inkscape"
   xmlns:sodipodi="http://sodipodi.sourceforge.net/DTD/sodipodi-0.dtd"
   xmlns="http://www.w3.org/2000/svg"
   xmlns:svg="http://www.w3.org/2000/svg">
  <defs
     id="defs2043" />
  <sodipodi:namedview
     id="namedview2041"
     pagecolor="#ffffff"
     bordercolor="#000000"
     borderopacity="0.25"
     inkscape:showpageshadow="2"
     inkscape:pageopacity="0.0"
     inkscape:pagecheckerboard="0"
     inkscape:deskcolor="#d1d1d1"
     showgrid="true"
     inkscape:zoom="55.625733"
     inkscape:cx="5.1594826"
     inkscape:cy="11.41558"
     inkscape:window-width="3072"
     inkscape:window-height="1694"
     inkscape:window-x="1499"
     inkscape:window-y="-11"
     inkscape:window-maximized="1"
     inkscape:current-layer="svg2039">
    <inkscape:grid
       type="xygrid"
       id="grid2162"
       originx="0"
       originy="0" />
  </sodipodi:namedview>
  <path
     d="m 4.6665182,2.7536486 c -1.1099217,0 -2.0211488,0.9024222 -1.902728,2.0060009 0.464839,4.3321187 2.417859,8.2188805 5.3377249,11.1388205 2.9198779,2.919816 6.8064489,4.872851 11.1385689,5.337713 1.103566,0.118446 2.006288,-0.792819 2.006288,-1.902664 v -2.021741 c 0,-0.887399 -0.582053,-1.670044 -1.432149,-1.925024 L 17.37171,14.905437 c -0.708037,-0.212399 -1.475611,-0.01884 -1.998379,0.503929 l -1.215982,1.21598 C 12.701586,15.879881 11.378513,14.912347 10.233121,13.766953 9.087728,12.62156 8.1200421,11.298436 7.3746257,9.8427359 L 8.5906961,8.6266656 C 9.1134772,8.1038846 9.3070343,7.3361742 9.0945864,6.6280257 L 8.6130171,4.1858358 C 8.3580006,3.3357785 7.5757072,2.7536486 6.6882191,2.7536486 Z"
     stroke="#000000"
     stroke-width="1.50726"
     stroke-linejoin="round"
     id="path2037"
     style="fill:#000000;fill-opacity:1" />
</svg>
