<?xml version="1.0" encoding="UTF-8" standalone="no"?>
<!-- Created with Inkscape (http://www.inkscape.org/) -->

<svg
   viewBox="0 0 24 24"
   version="1.1"
   id="svg5"
   inkscape:version="1.2.1 (9c6d41e410, 2022-07-14)"
   sodipodi:docname="duckduckgo.svg"
   xmlns:inkscape="http://www.inkscape.org/namespaces/inkscape"
   xmlns:sodipodi="http://sodipodi.sourceforge.net/DTD/sodipodi-0.dtd"
   xmlns="http://www.w3.org/2000/svg"
   xmlns:svg="http://www.w3.org/2000/svg">
  <sodipodi:namedview
     id="namedview7"
     pagecolor="#ffffff"
     bordercolor="#000000"
     borderopacity="1"
     inkscape:pageshadow="2"
     inkscape:pageopacity="1"
     inkscape:pagecheckerboard="0"
     inkscape:document-units="px"
     showgrid="true"
     inkscape:object-nodes="false"
     inkscape:showpageshadow="false"
     inkscape:snap-page="true"
     units="px"
     inkscape:zoom="45.254834"
     inkscape:cx="6.2534756"
     inkscape:cy="12.551145"
     inkscape:window-width="3072"
     inkscape:window-height="1694"
     inkscape:window-x="1499"
     inkscape:window-y="-11"
     inkscape:window-maximized="1"
     inkscape:current-layer="svg5"
     inkscape:deskcolor="#d1d1d1">
    <inkscape:grid
       type="xygrid"
       id="grid459" />
  </sodipodi:namedview>
  <defs
     id="defs2" />
  <path
     style="fill:#000000;fill-opacity:1;stroke-width:3.6;stroke-linecap:round;paint-order:markers stroke fill"
     d="M 12,1.5e-7 C 5.3724001,1.5e-7 -1e-7,5.3724002 -1e-7,12.000001 -1e-7,18.6276 5.3724001,24 12,24 18.6276,24 24,18.6276 24,12.000001 24,5.3724001 18.6276,5e-8 12,1.5e-7 Z M 12,1.2000002 A 10.8,10.8 0 0 1 22.8,12.000001 10.8,10.8 0 0 1 14.9928,22.3524 c -0.3744,-0.7332 -0.66,-1.2792 -0.9672,-1.872 -0.312,0.2964 -0.72,0.3384 -0.9948,0.3864 a 0.3216,0.3216 0 0 1 -0.0396,0.0048 2.3736,2.3736 0 0 1 -0.948,-0.1296 c -0.5688,0.3 -1.5504,0.828 -1.5624,0.834 a 0.61800001,0.61800001 0 0 1 -0.7751999,-0.1212 0.92160001,0.92160001 0 0 1 -0.2748,-0.6192 11.8608,11.8608 0 0 1 -0.1704,-1.6056 13.224,13.224 0 0 1 -0.0144,-0.768 2.784,2.784 0 0 1 0.0396,-0.5304 c 0.0192,-0.0864 0.0336,-0.1584 0.06,-0.2364 a 0.50400001,0.50400001 0 0 1 0.1728,-0.258 0.49320001,0.49320001 0 0 1 0.318,-0.0912 c 0.0864,0.0048 0.1608,0.0216 0.2459999,0.0396 0.7896,0.1572 1.4496,0.5604 2.082,0.8628 0.2316,-0.1212 0.468,-0.1872 0.6984,-0.228 -0.5352,-1.376399 -0.9036,-2.895599 -0.6516,-3.993599 l 0.0024,0.0024 c 0.3732,0.2592 2.8584,1.0944 4.092,1.074 1.2348,-0.024 3.2616,-0.7788 3.0396,-1.3824 -0.222,-0.6048 -2.2356,0.5316 -4.3356,0.336 -1.5552,-0.144 -1.83,-0.8388 -1.4856,-1.3464 0.4308,-0.6384 1.2216,0.12 2.5236,-0.2676 1.3032,-0.3876 3.1272,-1.0812 3.804,-1.458 1.5636,-0.87 -0.6552,-1.2300002 -1.1784,-0.9888002 -0.5016,0.2316002 -2.2392,0.6672002 -3.0288,0.8580002 0.4512,-1.5816012 -0.6288,-4.3344008 -1.836,-5.5380008 -0.3924,-0.3936 -0.996,-0.6408 -1.6776,-0.7716 -0.2616,-0.3588 -0.684,-0.6996 -1.2816,-1.0176 a 6.0960001,6.0960001 0 0 0 -2.8379999,-0.6912 v -0.0024 c -0.4896,-0.0312 -0.9336,0.1152 -1.356,0.1968 0.156,0.0144 0.7416,0.2868 1.11,0.4368001 -0.2952,0.0912 -0.5664,0.1692 -0.8376,0.2508 -0.18,0.0816 -0.3168,0.3899999 -0.3156,0.5364 0.876,-0.0888 2.1756,-0.0276 3.126,0.2556 -0.7236,0.0708 -0.9216,0.108 -1.9428,0.6048 -1.0212,0.4968 -2.064,2.5128 -1.6872,4.6212006 0.804,4.1904001 1.752,8.3795991 2.5992,12.5459991 A 10.8,10.8 0 0 1 1.2,12.000001 10.8,10.8 0 0 1 12,1.2000002 Z m 2.316,7.1399997 a 0.68160001,0.68160001 0 1 1 0,1.3620009 0.6816005,0.6816005 0 0 1 0,-1.363201 z m -5.2943999,0.3552 a 0.79200001,0.79200001 0 1 1 0.0012,1.5828011 0.79200001,0.79200001 0 0 1 -0.0012,-1.5828011 z M 16.158,17.4 c -0.318,0.072 -0.8772,0.3312 -1.158,0.48 -0.3504,0.216 -0.684,0.4836 -1.02,0.72 0.006,-0.3408 -0.5364,-0.3096 -0.78,-0.3 -0.3924,0.036 -0.726,0.0648 -1.05,0.3 -0.6948,-0.318 -1.3716,-0.7488 -2.13,-0.9 -0.3371999,-0.072 -0.3455999,-0.048 -0.4199999,0.3 -0.0744,0.348 -0.024,1.956 0.15,2.82 0.012,0.2808 0.2855999,0.6468 0.5699999,0.48 0,0 1.1304,-0.6144 1.68,-0.9 0.2832,0.168 0.66,0.1644 0.9768,0.15 0.2892,-0.0492 0.6444,-0.108 0.8532,-0.3276 0.2328,-0.2712 0.4224,-0.1608 0.6756,-0.0684 0.552,0.1824 1.104,0.396 1.6872,0.462 0.3636,0.0276 0.324,-0.456 0.3756,-0.69 0.0552,-0.738 0.0336,-1.4916 -0.1416,-2.214 C 16.3776,17.58 16.3404,17.4096 16.158,17.4 Z"
     id="path5" />
</svg>
