<?xml version="1.0" encoding="UTF-8" standalone="no"?>
<!-- Created with Inkscape (http://www.inkscape.org/) -->

<svg
   viewBox="0 0 24 24"
   version="1.1"
   id="svg5"
   inkscape:version="1.2.1 (9c6d41e410, 2022-07-14)"
   sodipodi:docname="template.svg"
   xmlns:inkscape="http://www.inkscape.org/namespaces/inkscape"
   xmlns:sodipodi="http://sodipodi.sourceforge.net/DTD/sodipodi-0.dtd"
   xmlns="http://www.w3.org/2000/svg"
   xmlns:svg="http://www.w3.org/2000/svg">
  <sodipodi:namedview
     id="namedview7"
     pagecolor="#ffffff"
     bordercolor="#000000"
     borderopacity="1"
     inkscape:pageshadow="2"
     inkscape:pageopacity="1"
     inkscape:pagecheckerboard="0"
     inkscape:document-units="px"
     showgrid="true"
     inkscape:object-nodes="false"
     inkscape:showpageshadow="false"
     inkscape:snap-page="true"
     units="px"
     inkscape:zoom="45.254834"
     inkscape:cx="8.1759221"
     inkscape:cy="12.551145"
     inkscape:window-width="3072"
     inkscape:window-height="1694"
     inkscape:window-x="-11"
     inkscape:window-y="-11"
     inkscape:window-maximized="1"
     inkscape:current-layer="svg5"
     inkscape:deskcolor="#d1d1d1">
    <inkscape:grid
       type="xygrid"
       id="grid459" />
  </sodipodi:namedview>
  <defs
     id="defs2" />
  <path
     style="fill:#000000;fill-opacity:1;stroke-width:3;stroke-linecap:round;paint-order:markers stroke fill"
     d="m 12,2.0000003 c -5.5230001,0 -10.0000002,4.477 -10.0000002,10.0000007 C 1.9999998,17.523 6.4769999,22 12,22 17.523,22 22,17.523 22,12.000001 22,6.4770002 17.523,2.0000002 12,2.0000003 Z m 0,1 A 9,9 0 0 1 21,12.000001 9,9 0 0 1 14.494,20.627 c -0.312,-0.611 -0.55,-1.066 -0.806,-1.56 -0.26,0.247 -0.6,0.282 -0.829,0.322 a 0.268,0.268 0 0 1 -0.033,0.004 1.978,1.978 0 0 1 -0.79,-0.108 c -0.474,0.25 -1.292,0.69 -1.302,0.695 a 0.515,0.515 0 0 1 -0.646,-0.101 0.768,0.768 0 0 1 -0.2289999,-0.516 9.884,9.884 0 0 1 -0.142,-1.338 11.02,11.02 0 0 1 -0.012,-0.64 2.32,2.32 0 0 1 0.033,-0.442 c 0.016,-0.072 0.028,-0.132 0.05,-0.197 a 0.42,0.42 0 0 1 0.144,-0.215 A 0.411,0.411 0 0 1 10.197,16.455 c 0.072,0.004 0.134,0.018 0.205,0.033 0.658,0.131 1.208,0.467 1.735,0.719 0.193,-0.101 0.39,-0.156 0.582,-0.19 -0.446,-1.146999 -0.753,-2.412999 -0.543,-3.327999 l 0.002,0.002 c 0.311,0.216 2.382,0.912 3.41,0.895 1.029,-0.02 2.718,-0.649 2.533,-1.152 -0.185,-0.504 -1.863,0.443 -3.613,0.28 -1.296,-0.12 -1.525,-0.699 -1.238,-1.122 0.359,-0.532 1.018,0.1 2.103,-0.223 1.086,-0.323 2.606,-0.901 3.17,-1.215 1.303,-0.725 -0.546,-1.025 -0.982,-0.824 -0.418,0.193 -1.866,0.556 -2.524,0.715 0.376,-1.3180007 -0.524,-3.6120007 -1.53,-4.6150007 -0.327,-0.328 -0.83,-0.534 -1.398,-0.643 -0.218,-0.299 -0.57,-0.583 -1.068,-0.848 a 5.08,5.08 0 0 0 -2.3650001,-0.576 v -0.002 c -0.408,-0.026 -0.778,0.096 -1.13,0.164 0.13,0.012 0.618,0.239 0.925,0.364 -0.246,0.076 -0.472,0.141 -0.698,0.209 -0.15,0.068 -0.264,0.325 -0.263,0.447 0.73,-0.074 1.813,-0.023 2.6050001,0.213 -0.6029998,0.059 -0.7680001,0.09 -1.6190001,0.504 -0.851,0.414 -1.72,2.094 -1.406,3.8510007 0.67,3.492 1.46,6.982999 2.166,10.454999 a 9,9 0 0 1 -6.256,-8.567999 A 9,9 0 0 1 12,3.0000003 Z m 1.93,5.95 a 0.568,0.568 0 1 1 0,1.1350007 0.56800035,0.56800035 0 0 1 0,-1.1360007 z m -4.4119998,0.296 a 0.66,0.66 0 1 1 0.001,1.3190007 0.66,0.66 0 0 1 -0.001,-1.3190007 z M 15.465,16.5 C 15.2,16.56 14.734,16.776 14.5,16.9 14.208,17.08 13.93,17.303 13.65,17.5 13.655,17.216 13.203,17.242 13,17.25 12.673,17.28 12.395,17.304 12.125,17.5 11.546,17.235 10.982,16.876 10.35,16.75 10.069,16.69 10.062,16.71 10,17 c -0.062,0.29 -0.02,1.63 0.125,2.35 0.01,0.234 0.238,0.539 0.475,0.4 0,0 0.942,-0.512 1.4,-0.75 0.236,0.14 0.55,0.137 0.814,0.125 0.241,-0.041 0.537,-0.09 0.711,-0.273 0.194,-0.226 0.352,-0.134 0.563,-0.057 0.46,0.152 0.92,0.33 1.406,0.385 0.303,0.023 0.27,-0.38 0.313,-0.575 0.046,-0.615 0.028,-1.243 -0.118,-1.845 -0.041,-0.11 -0.072,-0.252 -0.224,-0.26 z"
     id="path5" />
</svg>
