<?xml version="1.0" encoding="UTF-8" standalone="no"?>
<svg
   width="24"
   height="24"
   viewBox="0 0 24 24"
   fill="none"
   version="1.1"
   id="svg5165"
   sodipodi:docname="files_by_google.svg"
   inkscape:version="1.2.1 (9c6d41e410, 2022-07-14)"
   xmlns:inkscape="http://www.inkscape.org/namespaces/inkscape"
   xmlns:sodipodi="http://sodipodi.sourceforge.net/DTD/sodipodi-0.dtd"
   xmlns="http://www.w3.org/2000/svg"
   xmlns:svg="http://www.w3.org/2000/svg">
  <defs
     id="defs5169" />
  <sodipodi:namedview
     id="namedview5167"
     pagecolor="#ffffff"
     bordercolor="#000000"
     borderopacity="0.25"
     inkscape:showpageshadow="2"
     inkscape:pageopacity="0.0"
     inkscape:pagecheckerboard="0"
     inkscape:deskcolor="#d1d1d1"
     showgrid="false"
     inkscape:zoom="19.666667"
     inkscape:cx="6.4576271"
     inkscape:cy="1.1186441"
     inkscape:window-width="3072"
     inkscape:window-height="1694"
     inkscape:window-x="-11"
     inkscape:window-y="-11"
     inkscape:window-maximized="1"
     inkscape:current-layer="svg5165" />
  <path
     d="M 12,4.75 11.469675,4.219675 C 11.610325,4.079012 11.801088,4 12,4 Z M 3.75,18.5 h 16.5 V 20 H 3.75 Z M 20.5,18.25 V 5.75 H 22 v 12.5 z M 20.25,5.5 H 12 V 4 h 8.25 z m -7.719625,-0.219675 -2.00005,2 -1.06065,-1.06065 2,-2 z M 10,7.5 H 3.75 V 6 H 10 Z M 3.5,7.75 V 14 H 2 V 7.75 Z m 0,6.25 v 4.25 H 2 V 14 Z m 7.030325,-6.719675 -7.25,7.25005 -1.06065,-1.06075 7.25,-7.24995 z M 2.75,13.25 H 11 v 1.5 H 2.75 Z M 11.25,13 V 4.75 h 1.5 V 13 Z M 11,13.25 c 0.138075,0 0.25,-0.111875 0.25,-0.25 h 1.5 c 0,0.9665 -0.7835,1.75 -1.75,1.75 z m 9.25,5.25 c 0.138125,0 0.25,-0.111875 0.25,-0.25 H 22 C 22,19.2165 21.2165,20 20.25,20 Z M 3.75,20 C 2.7835,20 2,19.2165 2,18.25 h 1.5 c 0,0.138125 0.111925,0.25 0.25,0.25 z m 0,-12.5 C 3.611925,7.5 3.5,7.611925 3.5,7.75 H 2 C 2,6.7835 2.7835,6 3.75,6 Z M 20.5,5.75 C 20.5,5.611925 20.388125,5.5 20.25,5.5 V 4 C 21.2165,4 22,4.7835 22,5.75 Z"
     fill="#000000"
     id="path5163"
     style="stroke-width:0.125" />
</svg>
