<?xml version="1.0" encoding="UTF-8" standalone="no"?>
<svg
   width="24"
   height="24"
   viewBox="0 0 24 24"
   fill="none"
   version="1.1"
   id="svg5165"
   sodipodi:docname="files_by_google.svg"
   inkscape:version="1.2.1 (9c6d41e410, 2022-07-14)"
   xmlns:inkscape="http://www.inkscape.org/namespaces/inkscape"
   xmlns:sodipodi="http://sodipodi.sourceforge.net/DTD/sodipodi-0.dtd"
   xmlns="http://www.w3.org/2000/svg"
   xmlns:svg="http://www.w3.org/2000/svg">
  <defs
     id="defs5169" />
  <sodipodi:namedview
     id="namedview5167"
     pagecolor="#ffffff"
     bordercolor="#000000"
     borderopacity="0.25"
     inkscape:showpageshadow="2"
     inkscape:pageopacity="0.0"
     inkscape:pagecheckerboard="0"
     inkscape:deskcolor="#d1d1d1"
     showgrid="false"
     inkscape:zoom="19.666667"
     inkscape:cx="2.0338983"
     inkscape:cy="1.118644"
     inkscape:window-width="3072"
     inkscape:window-height="1694"
     inkscape:window-x="1499"
     inkscape:window-y="-11"
     inkscape:window-maximized="1"
     inkscape:current-layer="svg5165" />
  <path
     d="M 12,3.3 11.36361,2.66361 C 11.53239,2.4948144 11.761306,2.4 12,2.4 Z M 2.1,19.8 h 19.8 v 1.8 H 2.1 Z M 22.2,19.5 V 4.5 H 24 v 15 z M 21.9,4.2 H 12 V 2.4 h 9.9 z m -9.26355,-0.26361 -2.40006,2.4 -1.27278,-1.27278 2.4,-2.4 z M 9.6,6.6 H 2.1 V 4.8 H 9.6 Z M 1.8,6.9 v 7.5 H 0 V 6.9 Z m 0,7.5 v 5.1 H 0 v -5.1 z m 8.43639,-8.06361 -8.7,8.70006 -1.27278,-1.2729 8.7,-8.69994 z M 0.9,13.5 h 9.9 v 1.8 H 0.9 Z M 11.1,13.2 V 3.3 h 1.8 v 9.9 z m -0.3,0.3 c 0.16569,0 0.3,-0.13425 0.3,-0.3 h 1.8 c 0,1.1598 -0.9402,2.1 -2.1,2.1 z m 11.1,6.3 c 0.16575,0 0.3,-0.13425 0.3,-0.3 H 24 c 0,1.1598 -0.9402,2.1 -2.1,2.1 z M 2.1,21.6 C 0.9402,21.6 0,20.6598 0,19.5 h 1.8 c 0,0.16575 0.13431,0.3 0.3,0.3 z m 0,-15 C 1.93431,6.6 1.8,6.73431 1.8,6.9 H 0 C 0,5.7402 0.9402,4.8 2.1,4.8 Z M 22.2,4.5 C 22.2,4.33431 22.06575,4.2 21.9,4.2 V 2.4 c 1.1598,0 2.1,0.9402 2.1,2.1 z"
     fill="#000000"
     id="path5163"
     style="stroke-width:0.15" />
</svg>
