<?xml version="1.0" encoding="UTF-8" standalone="no"?>
<svg
   width="24"
   height="24"
   viewBox="0 0 24 24"
   fill="none"
   version="1.1"
   id="svg6"
   sodipodi:docname="find_my_device.svg"
   inkscape:version="1.2.1 (9c6d41e410, 2022-07-14)"
   xmlns:inkscape="http://www.inkscape.org/namespaces/inkscape"
   xmlns:sodipodi="http://sodipodi.sourceforge.net/DTD/sodipodi-0.dtd"
   xmlns="http://www.w3.org/2000/svg"
   xmlns:svg="http://www.w3.org/2000/svg">
  <defs
     id="defs10" />
  <sodipodi:namedview
     id="namedview8"
     pagecolor="#ffffff"
     bordercolor="#666666"
     borderopacity="1.0"
     inkscape:pageshadow="2"
     inkscape:pageopacity="0.0"
     inkscape:pagecheckerboard="true"
     showgrid="true"
     inkscape:zoom="17.354167"
     inkscape:cx="-3.8607442"
     inkscape:cy="12.677071"
     inkscape:window-width="3072"
     inkscape:window-height="1694"
     inkscape:window-x="1499"
     inkscape:window-y="-11"
     inkscape:window-maximized="1"
     inkscape:current-layer="svg6"
     inkscape:showpageshadow="2"
     inkscape:deskcolor="#d1d1d1">
    <inkscape:grid
       type="xygrid"
       id="grid907"
       empspacing="1" />
  </sodipodi:namedview>
  <path
     fill-rule="evenodd"
     clip-rule="evenodd"
     d="M 12.000009,0 C 9.2639973,0 6.5278892,1.0437672 4.4403452,3.131304 c -4.17496075,4.175076 -4.17496075,10.944216 0,15.119256 1.15218,1.15212 2.160132,1.76832 3.238044,2.42724 l 2.76e-4,1.2e-4 2.28e-4,1.2e-4 C 8.9180373,21.43572 10.249869,22.24992 12.000009,24 c 1.749996,-1.75008 3.081996,-2.56428 4.321116,-3.32184 l 2.4e-4,-1.2e-4 c 1.07808,-0.65916 2.08608,-1.27536 3.23832,-2.42748 4.17492,-4.17516 4.17492,-10.94418 0,-15.119256 C 17.472165,1.0437672 14.736045,0 12.000009,0 Z M 7.8545852,5.018184 c 0,-0.481992 0.3907321,-0.872724 0.8727241,-0.872724 h 6.5454957 c 0.48192,0 0.87264,0.390732 0.87264,0.872724 V 16.36368 c 0,0.48192 -0.39072,0.87264 -0.87264,0.87264 H 8.7273093 c -0.481992,0 -0.8727241,-0.39072 -0.8727241,-0.87264 z M 8.9454934,6.327276 H 15.054525 V 15.0546 H 8.9454934 Z"
     fill="#C4C4C4"
     fill-opacity="0.77"
     id="path4"
     style="opacity:1;fill:#000000;fill-opacity:1;stroke-width:1.2" />
</svg>
