<?xml version="1.0" encoding="UTF-8" standalone="no"?>
<svg
   width="24"
   height="24"
   viewBox="0 0 24 24"
   fill="none"
   version="1.1"
   id="svg6"
   sodipodi:docname="google_meet.svg"
   inkscape:version="1.2.1 (9c6d41e410, 2022-07-14)"
   xmlns:inkscape="http://www.inkscape.org/namespaces/inkscape"
   xmlns:sodipodi="http://sodipodi.sourceforge.net/DTD/sodipodi-0.dtd"
   xmlns="http://www.w3.org/2000/svg"
   xmlns:svg="http://www.w3.org/2000/svg">
  <defs
     id="defs10" />
  <sodipodi:namedview
     id="namedview8"
     pagecolor="#ffffff"
     bordercolor="#000000"
     borderopacity="0.25"
     inkscape:showpageshadow="2"
     inkscape:pageopacity="0.0"
     inkscape:pagecheckerboard="0"
     inkscape:deskcolor="#d1d1d1"
     showgrid="false"
     inkscape:zoom="39.333333"
     inkscape:cx="18.508475"
     inkscape:cy="18.584746"
     inkscape:window-width="3072"
     inkscape:window-height="1694"
     inkscape:window-x="-11"
     inkscape:window-y="-11"
     inkscape:window-maximized="1"
     inkscape:current-layer="svg6" />
  <g
     id="g294"
     transform="scale(0.125)">
    <path
       d="M 138,140 V 52 c 0,-8.8366 -7.163,-16 -16,-16 H 58.1596 L 22,72.1596 V 140 c 0,8.837 7.1634,16 16,16 h 84 c 8.837,0 16,-7.163 16,-16 z"
       stroke="#000000"
       stroke-width="12"
       stroke-linejoin="round"
       id="path2" />
    <g
       id="g2113"
       style="fill:#000000;stroke:#000000;stroke-opacity:1">
      <path
         d="M 170,51.9998 V 140 L 138,112 V 79.9998 Z"
         stroke="black"
         stroke-width="12"
         stroke-linejoin="round"
         id="path4"
         style="fill:#000000;stroke:#000000;stroke-opacity:1" />
      <path
         style="fill:#000000;fill-opacity:0.141176;stroke:#000000;stroke-width:0.101695;stroke-opacity:1"
         d="M 153.73729,117.8049 144,109.26925 V 95.999995 82.73074 l 9.76161,-8.543336 c 7.38467,-6.46304 9.82379,-8.543336 10.01695,-8.543336 h 0.25534 V 96 126.35593 l -0.27966,-0.008 c -0.22069,-0.006 -2.33307,-1.8077 -10.01695,-8.54334 z"
         id="path960" />
    </g>
  </g>
</svg>
