<?xml version="1.0" encoding="UTF-8" standalone="no"?>
<svg
   width="24"
   height="24"
   viewBox="0 0 24 24"
   fill="none"
   version="1.1"
   id="svg6"
   sodipodi:docname="google_news.svg"
   inkscape:version="1.2.1 (9c6d41e410, 2022-07-14)"
   xmlns:inkscape="http://www.inkscape.org/namespaces/inkscape"
   xmlns:sodipodi="http://sodipodi.sourceforge.net/DTD/sodipodi-0.dtd"
   xmlns="http://www.w3.org/2000/svg"
   xmlns:svg="http://www.w3.org/2000/svg">
  <defs
     id="defs10" />
  <sodipodi:namedview
     id="namedview8"
     pagecolor="#ffffff"
     bordercolor="#666666"
     borderopacity="1.0"
     inkscape:pageshadow="2"
     inkscape:pageopacity="0.0"
     inkscape:pagecheckerboard="true"
     showgrid="true"
     inkscape:zoom="17.354167"
     inkscape:cx="-9.4501799"
     inkscape:cy="17.747899"
     inkscape:window-width="3072"
     inkscape:window-height="1694"
     inkscape:window-x="1499"
     inkscape:window-y="-11"
     inkscape:window-maximized="1"
     inkscape:current-layer="svg6"
     inkscape:showpageshadow="2"
     inkscape:deskcolor="#d1d1d1">
    <inkscape:grid
       type="xygrid"
       id="grid1019"
       empspacing="1" />
  </sodipodi:namedview>
  <path
     fill-rule="evenodd"
     clip-rule="evenodd"
     d="M 0,3.692316 C 0,3.18252 0.41328,2.76924 0.923076,2.76924 H 23.07696 C 23.58672,2.76924 24,3.18252 24,3.692316 V 20.30772 c 0,0.50976 -0.41328,0.92304 -0.92304,0.92304 H 0.923076 C 0.41328,21.23076 0,20.81748 0,20.30772 Z m 8.515692,6.421092 C 8.083008,9.701484 7.536084,9.490332 6.9234,9.490332 c -1.083456,0 -2.000748,0.73038 -2.329596,1.716912 -0.083076,0.249228 -0.131808,0.515772 -0.131808,0.792696 0,0.276912 0.045,0.54342 0.131544,0.79266 0.328836,0.98652 1.246404,1.71696 2.32986,1.71696 0.560712,0 1.034892,-0.15228 1.408716,-0.4014 0.436152,-0.29424 0.73038,-0.72708 0.830772,-1.23948 H 6.923292 V 11.307588 H 10.8348 c 0.04152,0.252696 0.06576,0.512304 0.06576,0.78576 0,1.263492 -0.45,2.329572 -1.232292,3.053052 -0.68538,0.63348 -1.623336,1.0074 -2.744868,1.0074 -1.623444,0 -3.025356,-0.93456 -3.70728,-2.29152 -0.283836,-0.56076 -0.446796,-1.19076 -0.446796,-1.86234 0,-0.671532 0.162684,-1.301532 0.446532,-1.862292 0.681912,-1.356912 2.0841,-2.291532 3.707544,-2.291532 1.121532,0 2.059596,0.411924 2.776128,1.083456 z M 13.38468,7.846116 c -0.25488,0 -0.46152,0.20664 -0.46152,0.461544 v 0.923076 c 0,0.254904 0.20664,0.461532 0.46152,0.461532 h 6 c 0.25488,0 0.46152,-0.20664 0.46152,-0.461532 V 8.30766 c 0,-0.254904 -0.20664,-0.461544 -0.46152,-0.461544 z m -0.46152,6.923124 c 0,-0.255 0.20664,-0.46164 0.46152,-0.46164 h 6 c 0.25488,0 0.46152,0.20664 0.46152,0.46164 v 0.92304 c 0,0.25488 -0.20664,0.46152 -0.46152,0.46152 h -6 c -0.25488,0 -0.46152,-0.20664 -0.46152,-0.46152 z m 0.46152,-3.692352 c -0.25488,0 -0.46152,0.20664 -0.46152,0.461544 v 0.923088 c 0,0.25488 0.20664,0.46152 0.46152,0.46152 h 7.38468 c 0.25488,0 0.46152,-0.20664 0.46152,-0.46152 v -0.9231 c 0,-0.254892 -0.20664,-0.461532 -0.46152,-0.461532 z"
     fill="#C4C4C4"
     fill-opacity="0.73"
     id="path4"
     style="fill:#000000;fill-opacity:1;stroke-width:1.2" />
</svg>
