<?xml version="1.0" encoding="UTF-8" standalone="no"?>
<svg
   width="24"
   height="24"
   viewBox="0 0 24 24"
   fill="none"
   version="1.1"
   id="svg8"
   sodipodi:docname="google_home.svg"
   inkscape:version="1.2.1 (9c6d41e410, 2022-07-14)"
   xmlns:inkscape="http://www.inkscape.org/namespaces/inkscape"
   xmlns:sodipodi="http://sodipodi.sourceforge.net/DTD/sodipodi-0.dtd"
   xmlns="http://www.w3.org/2000/svg"
   xmlns:svg="http://www.w3.org/2000/svg">
  <defs
     id="defs12" />
  <sodipodi:namedview
     id="namedview10"
     pagecolor="#ffffff"
     bordercolor="#000000"
     borderopacity="0.25"
     inkscape:showpageshadow="2"
     inkscape:pageopacity="0.0"
     inkscape:pagecheckerboard="0"
     inkscape:deskcolor="#d1d1d1"
     showgrid="false"
     inkscape:zoom="9.8333333"
     inkscape:cx="-5.6949153"
     inkscape:cy="12"
     inkscape:window-width="3072"
     inkscape:window-height="1694"
     inkscape:window-x="1499"
     inkscape:window-y="-11"
     inkscape:window-maximized="1"
     inkscape:current-layer="svg8" />
  <g
     id="g7862"
     transform="matrix(1.2,0,0,1.2,-2.400012,-1.1999997)">
    <path
       d="m 2.67741,9.78718 8.40829,-8.4083 c 0.5052,-0.505174 1.3242,-0.505174 1.8294,0 L 15.0726,3.53645 2.29852,16.3106 v -5.6087 c 0,-0.3431 0.13628,-0.6722 0.37889,-0.91472 z"
       fill="#FFF1C0"
       id="path2"
       style="fill:#000000" />
    <path
       d="m 13.4147,8.02289 3.0718,-3.07187 4.8361,4.83609 c 0.2425,0.24249 0.3789,0.57109 0.3789,0.91409 v 9.0058 c 0,0.7145 -0.5785,1.293 -1.293,1.293 h -3.0723 v -9.0547 z"
       fill="#FFF1C0"
       id="path4"
       style="fill:#000000" />
    <path
       d="m 6.66437,14.7792 -4.36524,4.3652 v 0.5626 c 0,0.7145 0.57856,1.293 1.29297,1.293 h 12.7441 -1 V 16.6348 H 6.66437 Z"
       fill="#FFF1C0"
       id="path6"
       style="fill:#000000" />
  </g>
</svg>
