<?xml version="1.0" encoding="UTF-8" standalone="no"?>
<svg
   width="24"
   height="24"
   viewBox="0 0 24 24"
   fill="none"
   version="1.1"
   id="svg24"
   sodipodi:docname="google_podcasts.svg"
   inkscape:version="1.2.1 (9c6d41e410, 2022-07-14)"
   xmlns:inkscape="http://www.inkscape.org/namespaces/inkscape"
   xmlns:sodipodi="http://sodipodi.sourceforge.net/DTD/sodipodi-0.dtd"
   xmlns="http://www.w3.org/2000/svg"
   xmlns:svg="http://www.w3.org/2000/svg">
  <defs
     id="defs28" />
  <sodipodi:namedview
     id="namedview26"
     pagecolor="#ffffff"
     bordercolor="#666666"
     borderopacity="1.0"
     inkscape:pageshadow="2"
     inkscape:pageopacity="0.0"
     inkscape:pagecheckerboard="true"
     showgrid="true"
     inkscape:zoom="24.542498"
     inkscape:cx="-6.4785581"
     inkscape:cy="11.653256"
     inkscape:window-width="3072"
     inkscape:window-height="1694"
     inkscape:window-x="-11"
     inkscape:window-y="-11"
     inkscape:window-maximized="1"
     inkscape:current-layer="svg24"
     inkscape:showpageshadow="2"
     inkscape:deskcolor="#d1d1d1">
    <inkscape:grid
       type="xygrid"
       id="grid925"
       empspacing="1" />
  </sodipodi:namedview>
  <path
     id="path22"
     style="color:#000000;fill:#000000;stroke-width:1.30363;stroke-linecap:round;-inkscape-stroke:none"
     d="M 11.998727,2.0000012 A 1.2125957,1.2125957 0 0 0 10.786761,3.2119679 V 4.5792497 A 1.2125957,1.2125957 0 0 0 11.998727,5.7912164 1.2125957,1.2125957 0 0 0 13.21324,4.5792497 V 3.2119679 A 1.2125957,1.2125957 0 0 0 11.998727,2.0000012 Z m 0,5.1406741 a 1.2125957,1.2125957 0 0 0 -1.211966,1.211967 v 7.2947167 a 1.2125957,1.2125957 0 0 0 1.211966,1.211966 1.2125957,1.2125957 0 0 0 1.214513,-1.211966 V 8.3526423 a 1.2125957,1.2125957 0 0 0 -1.214513,-1.211967 z m 0,11.0655627 a 1.2125957,1.2125957 0 0 0 -1.211966,1.214513 v 1.367282 a 1.2125957,1.2125957 0 0 0 1.211966,1.211966 1.2125957,1.2125957 0 0 0 1.214513,-1.211966 v -1.367282 a 1.2125957,1.2125957 0 0 0 -1.214513,-1.214513 z m -0.651814,1.214513 v 1.367282 h 1.303628 V 19.420751 Z M 16.39338,6.0000007 a 1.2125957,1.2125957 0 0 0 -1.211967,1.2119666 v 1.369829 a 1.2125957,1.2125957 0 0 0 1.211967,1.211966 1.2125957,1.2125957 0 0 0 1.211967,-1.211966 V 7.2119673 A 1.2125957,1.2125957 0 0 0 16.39338,6.0000007 Z m 0,5.0999363 a 1.2125957,1.2125957 0 0 0 -1.211967,1.214513 v 4.471036 A 1.2125957,1.2125957 0 0 0 16.39338,18 1.2125957,1.2125957 0 0 0 17.605347,16.785486 V 12.31445 A 1.2125957,1.2125957 0 0 0 16.39338,11.099937 Z M 15.741565,7.2119673 v 1.369829 h 1.303629 V 7.2119673 Z M 7.6066211,6.0000007 A 1.2125957,1.2125957 0 0 0 6.3946543,7.2145133 v 4.4710377 a 1.2125957,1.2125957 0 0 0 1.2119668,1.214514 1.2125957,1.2125957 0 0 0 1.2119673,-1.214514 V 7.2145133 A 1.2125957,1.2125957 0 0 0 7.6066211,6.0000007 Z m 0,8.2062383 a 1.2125957,1.2125957 0 0 0 -1.2119668,1.211966 v 1.369827 A 1.2125957,1.2125957 0 0 0 7.6066211,18 1.2125957,1.2125957 0 0 0 8.8185884,16.788032 V 15.418205 A 1.2125957,1.2125957 0 0 0 7.6066211,14.206239 Z M 6.954807,15.418205 v 1.369827 h 1.3036285 v -1.369827 z m 13.833225,-5.313813 a 1.2125957,1.2125957 0 0 0 -1.214513,1.211968 v 1.367281 a 1.2125957,1.2125957 0 0 0 1.214513,1.211968 1.2125957,1.2125957 0 0 0 1.211966,-1.211968 V 11.31636 a 1.2125957,1.2125957 0 0 0 -1.211966,-1.211968 z m -0.651814,1.211968 v 1.367281 h 1.303628 V 11.31636 Z M 3.2119686,10.104392 A 1.2125957,1.2125957 0 0 0 2.0000018,11.31636 v 1.367281 a 1.2125957,1.2125957 0 0 0 1.2119668,1.211968 1.2125957,1.2125957 0 0 0 1.2119667,-1.211968 V 11.31636 A 1.2125957,1.2125957 0 0 0 3.2119686,10.104392 Z m -0.651814,1.211968 v 1.367281 H 3.8637827 V 11.31636 Z" />
</svg>
