<?xml version="1.0" encoding="UTF-8" standalone="no"?>
<svg
   width="192"
   height="192"
   viewBox="0 0 192 192"
   fill="none"
   version="1.1"
   id="svg6"
   sodipodi:docname="google_meet.svg"
   inkscape:version="1.2.1 (9c6d41e410, 2022-07-14)"
   xmlns:inkscape="http://www.inkscape.org/namespaces/inkscape"
   xmlns:sodipodi="http://sodipodi.sourceforge.net/DTD/sodipodi-0.dtd"
   xmlns="http://www.w3.org/2000/svg"
   xmlns:svg="http://www.w3.org/2000/svg">
  <defs
     id="defs10" />
  <sodipodi:namedview
     id="namedview8"
     pagecolor="#ffffff"
     bordercolor="#000000"
     borderopacity="0.25"
     inkscape:showpageshadow="2"
     inkscape:pageopacity="0.0"
     inkscape:pagecheckerboard="0"
     inkscape:deskcolor="#d1d1d1"
     showgrid="false"
     inkscape:zoom="6.9532167"
     inkscape:cx="143.17115"
     inkscape:cy="123.39613"
     inkscape:window-width="3072"
     inkscape:window-height="1694"
     inkscape:window-x="-11"
     inkscape:window-y="-11"
     inkscape:window-maximized="1"
     inkscape:current-layer="svg6" />
  <path
     d="M138 140V52C138 43.1634 130.837 36 122 36H58.1596L22 72.1596V140C22 148.837 29.1634 156 38 156H122C130.837 156 138 148.837 138 140Z"
     stroke="black"
     stroke-width="12"
     stroke-linejoin="round"
     id="path2" />
  <g
     id="g2113"
     style="stroke:#000000;stroke-opacity:1;fill:#000000">
    <path
       d="M170 51.9998V140L138 112V79.9998L170 51.9998Z"
       stroke="black"
       stroke-width="12"
       stroke-linejoin="round"
       id="path4"
       style="stroke:#000000;stroke-opacity:1;fill:#000000" />
    <path
       style="fill:#000000;fill-opacity:0.141176;stroke-width:0.101695;stroke:#000000;stroke-opacity:1"
       d="M 153.73729,117.8049 144,109.26925 V 95.999995 82.73074 l 9.76161,-8.543336 c 7.38467,-6.46304 9.82379,-8.543336 10.01695,-8.543336 h 0.25534 V 96 126.35593 l -0.27966,-0.008 c -0.22069,-0.006 -2.33307,-1.8077 -10.01695,-8.54334 z"
       id="path960" />
  </g>
</svg>
