<?xml version="1.0" encoding="UTF-8" standalone="no"?>
<svg
   width="24"
   height="24"
   viewBox="0 0 24 24"
   fill="none"
   version="1.1"
   id="svg767"
   sodipodi:docname="google_photos.svg"
   inkscape:version="1.2.1 (9c6d41e410, 2022-07-14)"
   xmlns:inkscape="http://www.inkscape.org/namespaces/inkscape"
   xmlns:sodipodi="http://sodipodi.sourceforge.net/DTD/sodipodi-0.dtd"
   xmlns="http://www.w3.org/2000/svg"
   xmlns:svg="http://www.w3.org/2000/svg">
  <defs
     id="defs771" />
  <sodipodi:namedview
     id="namedview769"
     pagecolor="#ffffff"
     bordercolor="#000000"
     borderopacity="0.25"
     inkscape:showpageshadow="2"
     inkscape:pageopacity="0.0"
     inkscape:pagecheckerboard="0"
     inkscape:deskcolor="#d1d1d1"
     showgrid="false"
     inkscape:zoom="27.812867"
     inkscape:cx="5.7527331"
     inkscape:cy="11.002102"
     inkscape:window-width="3072"
     inkscape:window-height="1694"
     inkscape:window-x="1499"
     inkscape:window-y="-11"
     inkscape:window-maximized="1"
     inkscape:current-layer="svg767" />
  <g
     id="g894"
     transform="matrix(0.15,0,0,0.15,-2.4,-2.4)">
    <path
       d="M 96,22 V 96 C 116.435,96 133,79.4345 133,59 133,38.5655 116.435,22 96,22 Z"
       stroke="#000000"
       stroke-width="12"
       stroke-linejoin="round"
       id="path759" />
    <path
       d="m 96,96 v 74 C 75.5655,170 59,153.435 59,133 59,112.565 75.5655,96 96,96 Z"
       stroke="#000000"
       stroke-width="12"
       stroke-linejoin="round"
       id="path761" />
    <path
       d="M 170,96 H 96 c 0,20.435 16.565,37 37,37 20.435,0 37,-16.565 37,-37 z"
       stroke="#000000"
       stroke-width="12"
       stroke-linejoin="round"
       id="path763" />
    <path
       d="M 96,96 H 22 C 22,75.5655 38.5655,59 59,59 79.4345,59 96,75.5655 96,96 Z"
       stroke="#000000"
       stroke-width="12"
       stroke-linejoin="round"
       id="path765" />
  </g>
</svg>
