<?xml version="1.0" encoding="UTF-8" standalone="no"?>
<svg
   width="24"
   height="24"
   viewBox="0 0 24 24"
   fill="none"
   version="1.1"
   id="svg608"
   sodipodi:docname="google_pay.svg"
   inkscape:version="1.2.1 (9c6d41e410, 2022-07-14)"
   xmlns:inkscape="http://www.inkscape.org/namespaces/inkscape"
   xmlns:sodipodi="http://sodipodi.sourceforge.net/DTD/sodipodi-0.dtd"
   xmlns="http://www.w3.org/2000/svg"
   xmlns:svg="http://www.w3.org/2000/svg">
  <defs
     id="defs612" />
  <sodipodi:namedview
     id="namedview610"
     pagecolor="#ffffff"
     bordercolor="#000000"
     borderopacity="0.25"
     inkscape:showpageshadow="2"
     inkscape:pageopacity="0.0"
     inkscape:pagecheckerboard="0"
     inkscape:deskcolor="#d1d1d1"
     showgrid="false"
     inkscape:zoom="41.800674"
     inkscape:cx="8.7797628"
     inkscape:cy="8.2773785"
     inkscape:window-width="3072"
     inkscape:window-height="1694"
     inkscape:window-x="-11"
     inkscape:window-y="-11"
     inkscape:window-maximized="1"
     inkscape:current-layer="svg608" />
  <g
     id="g735"
     transform="matrix(0.12478303,0,0,0.12478303,0.03246654,-0.15890237)">
    <path
       fill-rule="evenodd"
       clip-rule="evenodd"
       d="m 121.291,73.2465 5.828,3.3649 c 4.666,2.6938 6.265,8.6599 3.571,13.3257 L 99.5683,143.841 c -5.2663,9.122 -16.9298,12.247 -26.0512,6.981 -9.1214,-5.267 -12.2466,-16.93 -6.9804,-26.052 l 0.6964,-1.206 -10.3923,-6 -0.6964,1.206 c -8.5799,14.861 -3.4882,33.864 11.3727,42.444 14.8609,8.58 33.8639,3.488 42.4439,-11.373 l 31.121,-53.9039 c 6.008,-10.4053 2.442,-23.7105 -7.963,-29.718 l -5.441,-3.1413 z"
       fill="#000000"
       id="path600" />
    <path
       d="M 83.4088,83.5473 C 87.7594,76.0117 85.1775,66.3761 77.642,62.0254 L 63.5433,53.8855 C 56.8815,50.0393 48.3631,52.3218 44.517,58.9836 L 26.4103,90.3453 C 16.7949,107 22.5011,128.296 39.1555,137.911 l 31.3617,18.107 C 58.526,149.095 54.4175,133.762 61.3406,121.77 Z"
       stroke="#000000"
       stroke-width="12"
       id="path602" />
    <path
       fill-rule="evenodd"
       clip-rule="evenodd"
       d="M 129.143,34.9746 C 109.619,23.7023 84.6538,30.3918 73.3815,49.916 l -4.7008,8.142 10.3923,6 4.7008,-8.142 C 91.7324,42.1313 109.359,37.4083 123.143,45.3669 l 10.117,5.841 c -6.181,2.5099 -11.604,7.0208 -15.198,13.2461 l -30.4254,52.698 c -2.6938,4.666 -8.6599,6.264 -13.3257,3.57 l -9.5754,-5.528 -3,5.196 -3,5.196 9.5754,5.529 c 10.4053,6.007 23.7105,2.442 29.718,-7.963 L 128.454,70.454 c 5.266,-9.1214 16.93,-12.2466 26.051,-6.9804 l 6,-10.3923 z"
       fill="#000000"
       id="path604" />
    <path
       fill-rule="evenodd"
       clip-rule="evenodd"
       d="m 91.0086,123.311 -5.1962,-3 3,-5.196 29.2496,-50.6609 c 8.58,-14.8609 27.582,-19.9526 42.443,-11.3727 14.861,8.58 19.953,27.5826 11.373,42.4435 l -22.285,38.5991 c -5.503,9.531 -17.691,12.797 -27.223,7.294 l -12.062,-6.964 6,-10.392 12.062,6.964 c 3.792,2.189 8.641,0.89 10.83,-2.902 l 22.286,-38.5991 c 5.266,-9.1214 2.141,-20.7849 -6.981,-26.0512 -9.121,-5.2662 -20.785,-2.141 -26.051,6.9804 l -24.026,41.6149 -5.1963,-3 z"
       fill="#000000"
       id="path606" />
  </g>
</svg>
