<?xml version="1.0" encoding="UTF-8" standalone="no"?>
<svg
   width="24"
   height="24"
   viewBox="0 0 24 24"
   fill="none"
   version="1.1"
   id="svg10"
   sodipodi:docname="google_play_store.svg"
   inkscape:version="1.2.1 (9c6d41e410, 2022-07-14)"
   xmlns:inkscape="http://www.inkscape.org/namespaces/inkscape"
   xmlns:sodipodi="http://sodipodi.sourceforge.net/DTD/sodipodi-0.dtd"
   xmlns="http://www.w3.org/2000/svg"
   xmlns:svg="http://www.w3.org/2000/svg">
  <defs
     id="defs14" />
  <sodipodi:namedview
     id="namedview12"
     pagecolor="#ffffff"
     bordercolor="#000000"
     borderopacity="0.25"
     inkscape:showpageshadow="2"
     inkscape:pageopacity="0.0"
     inkscape:pagecheckerboard="0"
     inkscape:deskcolor="#d1d1d1"
     showgrid="true"
     inkscape:zoom="39.333333"
     inkscape:cx="8.2627119"
     inkscape:cy="12.101695"
     inkscape:window-width="3072"
     inkscape:window-height="1694"
     inkscape:window-x="1499"
     inkscape:window-y="-11"
     inkscape:window-maximized="1"
     inkscape:current-layer="svg10"
     showguides="true">
    <inkscape:grid
       type="xygrid"
       id="grid1041" />
    <sodipodi:guide
       position="11.923729,21.686441"
       orientation="1,0"
       id="guide427"
       inkscape:locked="false" />
    <sodipodi:guide
       position="-5.2372882,12.025424"
       orientation="0,-1"
       id="guide429"
       inkscape:locked="false" />
  </sodipodi:namedview>
  <g
     id="g1039"
     transform="matrix(1.2,0,0,1.2022327,-3.102928,-2.4013508)">
    <path
       d="M 16.1116,7.27313 7.52424,2.3255 C 7.2274,2.15617 6.89688,2.05402 6.55608,2.02627 6.21528,1.99852 5.87253,2.04585 5.5521,2.16491 5.23166,2.28396 4.94138,2.47184 4.70181,2.71523 4.66813,2.74945 4.63556,2.78465 4.60415,2.82077 l 7.97995,7.97993 z"
       fill="#FFF1C0"
       id="path2"
       style="fill:#000000" />
    <path
       d="m 17.4566,8.0495 -3.8119,3.8119 3.979,3.979 3.1844,-1.8408 c 0.3534,-0.2031 0.6468,-0.4954 0.8509,-0.8475 0.204,-0.3521 0.3115,-0.7518 0.3115,-1.1585 0,-0.4067 -0.1075,-0.8064 -0.3115,-1.1585 -0.2041,-0.3522 -0.4975,-0.6444 -0.8509,-0.84747 z"
       fill="#FFF1C0"
       id="path4"
       style="fill:#000000" />
    <path
       d="M 16.2718,16.6098 12.5841,12.922 4.47799,21.0281 c 0.04181,0.057 0.08629,0.1123 0.13333,0.1655 0.23649,0.2675 0.53144,0.4771 0.86206,0.6128 0.33062,0.1357 0.68809,0.1938 1.04477,0.1697 0.35669,-0.0241 0.70307,-0.1296 1.01238,-0.3085 z"
       fill="#FFF1C0"
       id="path6"
       style="fill:#000000" />
    <path
       d="M 4.03438,19.3504 11.5234,11.8614 4.03438,4.37232 Z"
       fill="#FFF1C0"
       id="path8"
       style="fill:#000000" />
  </g>
</svg>
