<?xml version="1.0" encoding="UTF-8" standalone="no"?>
<svg
   width="24"
   height="24"
   viewBox="0 0 24 24"
   fill="none"
   version="1.1"
   id="svg24"
   sodipodi:docname="google_podcasts.svg"
   inkscape:version="1.2.1 (9c6d41e410, 2022-07-14)"
   xmlns:inkscape="http://www.inkscape.org/namespaces/inkscape"
   xmlns:sodipodi="http://sodipodi.sourceforge.net/DTD/sodipodi-0.dtd"
   xmlns="http://www.w3.org/2000/svg"
   xmlns:svg="http://www.w3.org/2000/svg">
  <defs
     id="defs28" />
  <sodipodi:namedview
     id="namedview26"
     pagecolor="#ffffff"
     bordercolor="#666666"
     borderopacity="1.0"
     inkscape:pageshadow="2"
     inkscape:pageopacity="0.0"
     inkscape:pagecheckerboard="true"
     showgrid="true"
     inkscape:zoom="24.542498"
     inkscape:cx="-10.02343"
     inkscape:cy="11.653256"
     inkscape:window-width="3072"
     inkscape:window-height="1694"
     inkscape:window-x="1499"
     inkscape:window-y="-11"
     inkscape:window-maximized="1"
     inkscape:current-layer="svg24"
     inkscape:showpageshadow="2"
     inkscape:deskcolor="#d1d1d1">
    <inkscape:grid
       type="xygrid"
       id="grid925"
       empspacing="1" />
  </sodipodi:namedview>
  <path
     id="path22"
     style="color:#000000;fill:#000000;stroke-width:1.56436;stroke-linecap:round;-inkscape-stroke:none"
     d="M 11.998472,-7.5000053e-7 A 1.4551151,1.4551151 0 0 0 10.544113,1.4543595 V 3.095098 A 1.4551151,1.4551151 0 0 0 11.998472,4.5494583 1.4551151,1.4551151 0 0 0 13.455888,3.095098 V 1.4543595 A 1.4551151,1.4551151 0 0 0 11.998472,-7.5000053e-7 Z m 0,6.16881005000053 A 1.4551151,1.4551151 0 0 0 10.544113,7.62317 v 8.753662 a 1.4551151,1.4551151 0 0 0 1.454359,1.454359 1.4551151,1.4551151 0 0 0 1.457416,-1.454359 V 7.62317 A 1.4551151,1.4551151 0 0 0 11.998472,6.1688093 Z m 0,13.2786777 a 1.4551151,1.4551151 0 0 0 -1.454359,1.457416 v 1.640739 a 1.4551151,1.4551151 0 0 0 1.454359,1.454359 1.4551151,1.4551151 0 0 0 1.457416,-1.454359 v -1.640739 a 1.4551151,1.4551151 0 0 0 -1.457416,-1.457416 z m -0.782177,1.457416 v 1.640739 h 1.564354 V 20.904903 Z M 17.272057,4.7999995 a 1.4551151,1.4551151 0 0 0 -1.454361,1.4543602 v 1.6437951 a 1.4551151,1.4551151 0 0 0 1.454361,1.4543599 1.4551151,1.4551151 0 0 0 1.454361,-1.4543599 V 6.2543597 A 1.4551151,1.4551151 0 0 0 17.272057,4.7999995 Z m 0,6.1199255 a 1.4551151,1.4551151 0 0 0 -1.454361,1.457415 v 5.365245 a 1.4551151,1.4551151 0 0 0 1.454361,1.457417 1.4551151,1.4551151 0 0 0 1.454361,-1.457417 V 12.37734 A 1.4551151,1.4551151 0 0 0 17.272057,10.919925 Z M 16.489879,6.2543597 v 1.6437951 h 1.564355 V 6.2543597 Z M 6.7279443,4.7999995 A 1.4551151,1.4551151 0 0 0 5.2735839,6.2574149 v 5.3652461 a 1.4551151,1.4551151 0 0 0 1.4543604,1.457418 1.4551151,1.4551151 0 0 0 1.4543608,-1.457418 V 6.2574149 A 1.4551151,1.4551151 0 0 0 6.7279443,4.7999995 Z m 0,9.8474885 A 1.4551151,1.4551151 0 0 0 5.2735839,16.101847 V 17.74564 A 1.4551151,1.4551151 0 0 0 6.7279443,19.200002 1.4551151,1.4551151 0 0 0 8.1823051,17.74564 V 16.101847 A 1.4551151,1.4551151 0 0 0 6.7279443,14.647488 Z m -0.782177,1.454359 V 17.74564 H 7.5101218 V 16.101847 Z M 22.54564,9.7252697 A 1.4551151,1.4551151 0 0 0 21.088224,11.179632 V 12.82037 A 1.4551151,1.4551151 0 0 0 22.54564,14.274732 1.4551151,1.4551151 0 0 0 24,12.82037 V 11.179632 A 1.4551151,1.4551151 0 0 0 22.54564,9.7252697 Z m -0.782177,1.4543623 v 1.640738 h 1.564354 V 11.179632 Z M 1.4543603,9.7252697 A 1.4551151,1.4551151 0 0 0 -1e-7,11.179632 V 12.82037 A 1.4551151,1.4551151 0 0 0 1.4543603,14.274732 1.4551151,1.4551151 0 0 0 2.9087207,12.82037 V 11.179632 A 1.4551151,1.4551151 0 0 0 1.4543603,9.7252697 Z M 0.6721834,11.179632 v 1.640738 h 1.564354 v -1.640738 z" />
</svg>
