<?xml version="1.0" encoding="UTF-8" standalone="no"?>
<svg
   width="24"
   height="24"
   viewBox="0 0 24 24"
   fill="none"
   version="1.1"
   id="svg6"
   sodipodi:docname="google.svg"
   inkscape:version="1.2.1 (9c6d41e410, 2022-07-14)"
   xmlns:inkscape="http://www.inkscape.org/namespaces/inkscape"
   xmlns:sodipodi="http://sodipodi.sourceforge.net/DTD/sodipodi-0.dtd"
   xmlns="http://www.w3.org/2000/svg"
   xmlns:svg="http://www.w3.org/2000/svg">
  <defs
     id="defs10" />
  <sodipodi:namedview
     id="namedview8"
     pagecolor="#ffffff"
     bordercolor="#666666"
     borderopacity="1.0"
     inkscape:pageshadow="2"
     inkscape:pageopacity="0.0"
     inkscape:pagecheckerboard="true"
     showgrid="true"
     inkscape:zoom="24.542498"
     inkscape:cx="4.8079865"
     inkscape:cy="14.301723"
     inkscape:window-width="3072"
     inkscape:window-height="1694"
     inkscape:window-x="1499"
     inkscape:window-y="-11"
     inkscape:window-maximized="1"
     inkscape:current-layer="svg6"
     inkscape:showpageshadow="2"
     inkscape:deskcolor="#d1d1d1">
    <inkscape:grid
       type="xygrid"
       id="grid929" />
  </sodipodi:namedview>
  <path
     d="M 16.855454,6.54996 C 15.605569,5.3599712 14.025512,4.7499775 12.255529,4.7499775 c -3.129977,0 -5.7799714,2.1099941 -6.7299598,4.9599605 -0.2400008,0.720002 -0.3807785,1.490023 -0.3807785,2.29001 0,0.800012 0.1300073,1.569994 0.3800033,2.289994 0.9499848,2.85 3.600755,4.960116 6.730732,4.960116 1.619828,0 2.989696,-0.439892 4.069696,-1.159718 1.260004,-0.84994 2.109947,-2.100512 2.400004,-3.580523 H 12.255204 V 9.99984 h 11.29985 c 0.12,0.729998 0.19012,1.479994 0.19012,2.269988 0,3.650057 -1.299943,6.729944 -3.560057,8.82 C 18.205116,22.919828 15.495517,24 12.255534,24 7.565556,24 3.5155909,21.3 1.5456016,17.380115 0.725603,15.760114 0.254826,13.939938 0.254826,11.999948 0.254826,10.05996 0.7248149,8.239972 1.5448087,6.6199884 3.514797,2.7000176 7.5655512,0 12.255529,0 c 3.239983,0 5.949925,1.1899891 8.019927,3.1299766 z"
     fill="#EA4335"
     id="path4"
     style="fill:#000000;stroke-width:1.71428" />
</svg>
