<?xml version="1.0" encoding="UTF-8" standalone="no"?>
<svg
   width="24"
   height="24"
   viewBox="0 0 24 24"
   fill="none"
   version="1.1"
   id="svg1001"
   sodipodi:docname="grewards.svg"
   inkscape:version="1.2.1 (9c6d41e410, 2022-07-14)"
   xmlns:inkscape="http://www.inkscape.org/namespaces/inkscape"
   xmlns:sodipodi="http://sodipodi.sourceforge.net/DTD/sodipodi-0.dtd"
   xmlns="http://www.w3.org/2000/svg"
   xmlns:svg="http://www.w3.org/2000/svg">
  <defs
     id="defs1005" />
  <sodipodi:namedview
     id="namedview1003"
     pagecolor="#ffffff"
     bordercolor="#000000"
     borderopacity="0.25"
     inkscape:showpageshadow="2"
     inkscape:pageopacity="0.0"
     inkscape:pagecheckerboard="0"
     inkscape:deskcolor="#d1d1d1"
     showgrid="false"
     inkscape:zoom="9.8333333"
     inkscape:cx="-5.7966102"
     inkscape:cy="12"
     inkscape:window-width="3072"
     inkscape:window-height="1694"
     inkscape:window-x="1499"
     inkscape:window-y="-11"
     inkscape:window-maximized="1"
     inkscape:current-layer="svg1001" />
  <path
     fill-rule="evenodd"
     clip-rule="evenodd"
     d="M 4.408164,1.2 H 19.5918 V 4.08 H 24 v 3.52584 c 0,3.20472 -2.40936,5.85396 -5.53752,6.279 -1.06008,1.72908 -2.784,3.00084 -4.8132,3.45408 v 2.65872 h 1.70616 c 1.50768,0 2.72988,1.20444 2.72988,2.69028 V 22.8 H 5.800944 v -0.11208 c 0,-1.48584 1.2222,-2.69028 2.729856,-2.69028 h 1.70616 V 17.31252 C 8.25714,16.83792 6.577788,15.58152 5.537508,13.88484 2.409324,13.4598 0,10.81056 0,7.60584 V 4.08 H 4.408164 Z M 19.5918,9.86652 c 0,0.47364 -0.0426,0.9372 -0.12432,1.38708 1.33932,-0.67824 2.25768,-2.055576 2.25768,-3.64776 V 6.321912 H 19.5918 Z m -15.183636,0 V 6.321912 H 2.274876 V 7.60584 c 0,1.592184 0.9183,2.96952 2.257668,3.64776 C 4.450848,10.80372 4.408164,10.34016 4.408164,9.86652 Z M 14.57292,12.24 12,10.73232 9.427104,12.24 10.10568,9.3984 7.836732,7.486488 10.83012,7.235868 12,4.56 l 1.16988,2.675868 2.9934,0.25062 -2.27316,1.911912 z"
     fill="white"
     id="path999"
     style="fill:#000000;stroke-width:1.2" />
</svg>
