<?xml version="1.0" encoding="UTF-8" standalone="no"?>
<svg
   width="24"
   height="24"
   viewBox="0 0 24 24"
   fill="none"
   version="1.1"
   id="svg1362"
   sodipodi:docname="magisk.svg"
   inkscape:version="1.2.1 (9c6d41e410, 2022-07-14)"
   xmlns:inkscape="http://www.inkscape.org/namespaces/inkscape"
   xmlns:sodipodi="http://sodipodi.sourceforge.net/DTD/sodipodi-0.dtd"
   xmlns="http://www.w3.org/2000/svg"
   xmlns:svg="http://www.w3.org/2000/svg">
  <defs
     id="defs1366" />
  <sodipodi:namedview
     id="namedview1364"
     pagecolor="#ffffff"
     bordercolor="#000000"
     borderopacity="0.25"
     inkscape:showpageshadow="2"
     inkscape:pageopacity="0.0"
     inkscape:pagecheckerboard="0"
     inkscape:deskcolor="#d1d1d1"
     showgrid="false"
     inkscape:zoom="9.8333333"
     inkscape:cx="-5.8983051"
     inkscape:cy="12"
     inkscape:window-width="3072"
     inkscape:window-height="1694"
     inkscape:window-x="1499"
     inkscape:window-y="-11"
     inkscape:window-maximized="1"
     inkscape:current-layer="svg1362" />
  <g
     id="g1499"
     transform="matrix(1.2,0,0,1.2,-1.4608893,-2.3999978)">
    <path
       d="m 14.016757,2.302418 c -0.819,0.5616727 -1.230455,1.2303272 -1.344728,2.1450999 0.08273,1.0205544 -0.138545,1.7885089 -0.404727,2.7124725 -0.285636,0.991509 -0.623091,2.1626453 -0.692182,4.0184636 -0.151545,0.05927 -0.17009,-1.8726365 -0.187636,-3.7038363 -0.01118,-1.1652091 -0.02209,-2.2896999 -0.06645,-2.8344908 -0.114546,-1.4009817 0.740454,-2.2614725 1.055181,-2.5188998 0.314546,-0.2574363 0.916546,-0.060855 1.640546,0.1811909 z"
       fill="#000000"
       id="path1334"
       style="stroke-width:0.909091" />
    <path
       d="M 7.7883116,2.502418 C 8.3605025,2.4453271 8.8407024,4.5464633 8.8947388,5.7823269 8.9269024,6.5191359 9.445666,7.630254 9.740666,8.2627812 9.8974842,8.5987539 9.9912114,8.7997085 9.915666,8.7377994 8.7729661,7.8010267 8.0081388,6.6628995 7.1648298,5.4079633 6.8124935,4.883636 6.446439,4.338927 6.0334026,3.7799816 5.7690299,3.4223907 7.2161116,2.5595089 7.7883116,2.502418 Z"
       fill="#000000"
       id="path1336"
       style="stroke-width:0.909091" />
    <path
       d="m 12.509939,8.7381358 c 1.142545,-0.9368182 1.907363,-2.0750272 2.750818,-3.3300362 0.352363,-0.5242636 0.718363,-1.068909 1.131454,-1.6277817 0.264364,-0.3575909 -1.182727,-1.2204817 -1.755,-1.2775635 -0.572182,-0.0571 -1.052363,2.0440453 -1.106454,3.2798997 -0.03209,0.7372454 -0.550819,1.8488635 -0.845909,2.4812271 -0.156455,0.3356 -0.250455,0.5362455 -0.174909,0.4742546 z"
       fill="#000000"
       id="path1338"
       style="stroke-width:0.909091" />
    <path
       d="m 12.69112,8.8618994 c 0,0 1.495637,-0.8033909 2.775818,-1.1534727 1.196728,-0.327509 2.093818,-1.1326181 2.193727,-1.9831907 0.07455,-0.6334818 -0.925181,-1.8307181 -0.925181,-1.8307181 0,0 -0.701455,1.9452453 -1.621455,2.9175271 -0.239545,0.2531909 -0.4,0.4376454 -0.530182,0.5872818 -0.413999,0.4758726 -0.521636,0.5995999 -1.892727,1.4625726 z"
       fill="#000000"
       id="path1340"
       style="stroke-width:0.909091" />
    <path
       d="M 7.630148,8.4220903 C 8.5802388,8.651063 9.4053024,8.8499176 9.562666,9.548363 9.6318478,9.8543629 8.9402479,10.575636 7.6073934,10.520636 4.85653,10.40709 4.3486391,5.8995814 4.5647936,6.4496541 5.1004663,7.8124176 6.4601026,8.1400903 7.630148,8.4220903 Z"
       fill="#000000"
       id="path1342"
       style="stroke-width:0.909091" />
    <path
       d="m 14.818211,10.520908 c 2.750818,-0.113454 3.259091,-4.6209811 3.042545,-4.0709085 -0.535818,1.3625 -1.895363,1.6902363 -3.065272,1.9722817 -0.950091,0.2290455 -1.775182,0.4279455 -1.932636,1.1264454 -0.06909,0.3056363 0.622454,1.0272724 1.955363,0.9721814 z"
       fill="#000000"
       id="path1344"
       style="stroke-width:0.909091" />
    <path
       d="m 4.4786027,7.9275722 c 1.0865909,3.5353358 3.4540452,3.7328818 5.7325183,2.1069728 0.198727,-0.1418184 -0.110273,0.08573 -0.5760005,0.428545 l -8.181e-4,6.37e-4 c -0.5773454,0.425 -1.3956636,1.027363 -1.7888635,1.325363 -0.6304,0.477455 -0.8516273,0.979 -1.0037,1.323818 C 6.6896208,13.457726 6.6067117,13.645726 6.2526481,13.495635 3.869121,12.48509 4.2860482,7.3005813 4.4786027,7.9275722 Z"
       fill="#000000"
       id="path1346"
       style="stroke-width:0.909091" />
    <path
       d="m 14.579757,11.788999 c 0.630454,0.477546 0.851727,0.979182 1.003909,1.324 0.15209,0.344818 0.235,0.532727 0.588909,0.382636 2.383909,-1.010272 1.966909,-6.1950628 1.774,-5.5680719 -1.086546,3.5353449 -3.454,3.7332539 -5.732546,2.1069819 -0.200454,-0.1430911 0.115546,0.08955 0.588273,0.437545 0.576546,0.424546 1.387091,1.021273 1.777455,1.316909 z"
       fill="#000000"
       id="path1348"
       style="stroke-width:0.909091" />
    <path
       d="m 8.4353388,12.967999 c 0.4219182,-0.491 0.8485636,-0.987363 1.4543272,-1.161909 0.735091,-0.211545 1.319,0.416091 1.332273,0.430546 0.078,-0.08018 0.634272,-0.619273 1.323181,-0.421 0.605728,0.174545 1.032455,0.670999 1.454364,1.161909 0.451545,0.525454 0.897727,1.044636 1.552363,1.155999 0.055,0.0094 0.111546,0.02018 0.169637,0.03145 0.218182,0.04191 0.459091,0.08809 0.730182,0.07518 0.641999,-0.03073 1.453909,-0.393455 2.538454,-1.931545 0.320818,-0.454728 -0.795818,2.928454 -3.595636,2.969545 -1.143364,0.01673 -1.723727,-0.609 -2.250364,-1.176727 -0.418,-0.450546 -0.802091,-0.864546 -1.406909,-0.892 -0.412818,-0.01855 -0.502091,-0.680091 -0.520272,-0.895818 -0.01991,0.22509 -0.112455,0.867909 -0.519364,0.886272 -0.604818,0.02736 -0.9888181,0.441364 -1.4068453,0.892 -0.5266364,0.567727 -1.1070545,1.193364 -2.2503999,1.176727 -2.7997634,-0.04109 -3.9164543,-3.424272 -3.5956361,-2.969636 1.0845363,1.538091 1.8964908,1.900909 2.5384544,1.931636 0.2711454,0.01291 0.5119999,-0.03336 0.7301636,-0.07527 0.058127,-0.01118 0.1146454,-0.02209 0.1696909,-0.03136 0.6545908,-0.111364 1.1007453,-0.630545 1.5523362,-1.156 z"
       fill="#000000"
       id="path1350"
       style="stroke-width:0.909091" />
    <path
       d="m 10.264939,14.049181 c 0.02336,0.03918 0.900909,1.492182 1.940545,0.05627 0.01318,-0.01827 0.01009,-0.0029 -8.18e-4,0.05073 -0.03973,0.193 -0.181091,0.882272 -0.02727,2.285272 0.239455,2.181455 -1.132,5.558545 -1.132,5.558545 0,0 -1.005545,-3.370181 -0.808636,-5.491817 0.154091,-1.660818 0.03282,-2.430909 0.02818,-2.459 z"
       fill="#000000"
       id="path1352"
       style="stroke-width:0.909091" />
    <path
       d="m 12.83412,15.869544 c 0.149637,1.157364 0.02309,1.857727 -0.176272,2.961273 -0.029,0.160182 -0.05945,0.329182 -0.09091,0.509091 -0.125091,0.717545 2.557727,-2.157182 3.586454,-3.871 0.03891,-0.06464 0.0097,-0.043 -0.07173,0.01764 -0.278819,0.207273 -1.170819,0.870637 -2.055273,0.09682 -0.516091,-0.451273 -0.753909,-0.698091 -1.027091,-0.981546 -0.146454,-0.152 -0.303,-0.314454 -0.518182,-0.524727 -0.105727,-0.103182 -0.04436,0.117 0.05755,0.482818 0.09864,0.353818 0.235273,0.843909 0.295454,1.309636 z"
       fill="#000000"
       id="path1354"
       style="stroke-width:0.909091" />
    <path
       d="m 9.3880115,14.706817 c 0.1464727,-0.152 0.3030181,-0.314454 0.518109,-0.524727 0.1057275,-0.103182 0.044364,0.117 -0.057545,0.482818 -0.098636,0.353818 -0.2352727,0.843909 -0.2954545,1.309636 -0.1496364,1.157273 -0.023091,1.857727 0.1762727,2.961182 0.029,0.160364 0.059545,0.329182 0.090909,0.509182 0.1250909,0.717545 -2.5576635,-2.157273 -3.5864543,-3.871091 -0.038836,-0.06464 -0.00975,-0.04291 0.071754,0.01764 0.2787727,0.207364 1.1707999,0.870728 2.0552635,0.09691 0.5161454,-0.451273 0.7539545,-0.698091 1.0271454,-0.981546 z"
       fill="#000000"
       id="path1356"
       style="stroke-width:0.909091" />
    <path
       d="m 5.690039,3.8945179 c 0,0 0.7014727,1.9452453 1.621509,2.9175271 0.2398909,0.2534545 0.4004909,0.4380272 0.5307636,0.5877454 0.413709,0.4754636 0.5215727,0.5994272 1.8920817,1.462109 0,0 -1.4956363,-0.8030545 -2.7758089,-1.1534727 C 5.7622026,7.3809177 4.8650936,6.5758086 4.7648754,5.725236 4.6903118,5.0913996 5.690039,3.8945179 5.690039,3.8945179 Z"
       fill="#000000"
       id="path1358"
       style="stroke-width:0.909091" />
    <path
       d="M 11.037484,7.4795904 C 11.019848,9.309363 11.001302,11.237817 10.85012,11.178817 10.78103,9.3229993 10.443575,8.1521994 10.157939,7.1606813 9.891666,6.2366541 9.6704842,5.4686542 9.7532114,4.4480088 9.6389387,3.5328179 9.2275478,2.8644543 8.4084206,2.3027635 9.132466,2.060718 9.7344842,1.8641453 10.04903,2.1215726 c 0.314727,0.2570818 1.169454,1.1179181 1.055181,2.5189089 -0.04464,0.5455363 -0.05545,1.6722453 -0.06673,2.8391089 z"
       fill="#000000"
       id="path1360"
       style="stroke-width:0.909091" />
  </g>
</svg>
