<?xml version="1.0" encoding="UTF-8" standalone="no"?>
<svg
   id="Layer_1"
   data-name="Layer 1"
   viewBox="0 0 24 24"
   version="1.1"
   sodipodi:docname="maps.svg"
   inkscape:version="1.2.1 (9c6d41e410, 2022-07-14)"
   xmlns:inkscape="http://www.inkscape.org/namespaces/inkscape"
   xmlns:sodipodi="http://sodipodi.sourceforge.net/DTD/sodipodi-0.dtd"
   xmlns="http://www.w3.org/2000/svg"
   xmlns:svg="http://www.w3.org/2000/svg">
  <defs
     id="defs1540" />
  <sodipodi:namedview
     id="namedview1538"
     pagecolor="#ffffff"
     bordercolor="#000000"
     borderopacity="0.25"
     inkscape:showpageshadow="2"
     inkscape:pageopacity="0.0"
     inkscape:pagecheckerboard="0"
     inkscape:deskcolor="#d1d1d1"
     showgrid="false"
     inkscape:zoom="9.8333333"
     inkscape:cx="-5.8983051"
     inkscape:cy="12"
     inkscape:window-width="3072"
     inkscape:window-height="1694"
     inkscape:window-x="1499"
     inkscape:window-y="-11"
     inkscape:window-maximized="1"
     inkscape:current-layer="Layer_1" />
  <path
     d="M 12.000001,0 A 8.3590607,8.3590607 0 0 0 3.6412995,8.359313 c 0,2.655329 0.6905534,4.587081 3.3452827,7.823667 a 26.2036,26.2036 0 0 1 3.2233748,4.540809 C 11.172539,22.675353 11.059055,24 12.000001,24 c 0.940946,0 0.827461,-1.324647 1.790043,-3.276211 A 26.2036,26.2036 0 0 1 17.013418,16.18298 C 19.668147,12.946394 20.3587,11.014642 20.3587,8.359313 A 8.3590607,8.3590607 0 0 0 12.000001,0 Z m 0,11.534063 a 3.1822504,3.1822504 0 1 1 3.18255,-3.18255 3.1826344,3.1826344 0 0 1 -3.18255,3.18255 z"
     id="path1535"
     style="stroke-width:1.2" />
</svg>
