<?xml version="1.0" encoding="UTF-8" standalone="no"?>
<svg
   width="24"
   height="24"
   viewBox="0 0 24 24"
   fill="none"
   version="1.1"
   id="svg4"
   sodipodi:docname="messages.svg"
   inkscape:version="1.2.1 (9c6d41e410, 2022-07-14)"
   xmlns:inkscape="http://www.inkscape.org/namespaces/inkscape"
   xmlns:sodipodi="http://sodipodi.sourceforge.net/DTD/sodipodi-0.dtd"
   xmlns="http://www.w3.org/2000/svg"
   xmlns:svg="http://www.w3.org/2000/svg">
  <defs
     id="defs8" />
  <sodipodi:namedview
     id="namedview6"
     pagecolor="#ffffff"
     bordercolor="#000000"
     borderopacity="0.25"
     inkscape:showpageshadow="2"
     inkscape:pageopacity="0.0"
     inkscape:pagecheckerboard="0"
     inkscape:deskcolor="#d1d1d1"
     showgrid="false"
     inkscape:zoom="9.8333333"
     inkscape:cx="-14.542373"
     inkscape:cy="12"
     inkscape:window-width="3072"
     inkscape:window-height="1694"
     inkscape:window-x="1499"
     inkscape:window-y="-11"
     inkscape:window-maximized="1"
     inkscape:current-layer="svg4" />
  <path
     fill-rule="evenodd"
     clip-rule="evenodd"
     d="M 0.90684268,4.6 H 19.99464 C 22.212,4.6 23.9946,6.3135998 24,8.5197396 v 8.9604594 c 0,2.256599 -1.73112,3.919799 -3.99912,3.919799 H 6.2888301 c -1.9944718,0 -3.4280156,-1.971 -3.4280156,-3.919799 L 2.8491385,10.199739 0.21500678,5.9439999 C -0.27581842,5.1933399 0.12385478,4.6 0.90684268,4.6 Z M 6.854462,18.039279 h 9.712979 c 0.58272,0 1.142159,-0.42612 1.142159,-1.12032 0,-0.69408 -0.559439,-1.1202 -1.142159,-1.1202 H 6.854462 c -0.5827679,0 -1.1421598,0.42612 -1.1421598,1.1202 0,0.6942 0.5593919,1.12032 1.1421598,1.12032 z m 13.141018,-3.9198 H 6.854462 c -0.5773079,0 -1.1421598,-0.42528 -1.1421598,-1.1202 0,-0.6942 0.5648519,-1.11948 1.1421598,-1.11948 H 19.99548 c 0.57648,0 1.14288,0.42528 1.14288,1.11948 0,0.69492 -0.5664,1.1202 -1.14288,1.1202 z M 6.855242,10.199739 H 19.9962 c 0.5766,0 1.14216,-0.426108 1.14216,-1.1202475 0,-0.6941399 -0.55932,-1.1202599 -1.13664,-1.1202599 H 6.855242 c -0.5773079,0 -1.1429398,0.42612 -1.1429398,1.1202599 0,0.6941395 0.5656319,1.1202475 1.1429398,1.1202475 z"
     fill="#FFF1C0"
     id="path2"
     style="fill:#000000;stroke-width:1.2" />
</svg>
