<?xml version="1.0" encoding="UTF-8" standalone="no"?>
<svg
   width="24"
   height="24"
   viewBox="0 0 24 24"
   fill="none"
   version="1.1"
   id="svg4"
   sodipodi:docname="messages.svg"
   inkscape:version="1.2.1 (9c6d41e410, 2022-07-14)"
   xmlns:inkscape="http://www.inkscape.org/namespaces/inkscape"
   xmlns:sodipodi="http://sodipodi.sourceforge.net/DTD/sodipodi-0.dtd"
   xmlns="http://www.w3.org/2000/svg"
   xmlns:svg="http://www.w3.org/2000/svg">
  <defs
     id="defs8" />
  <sodipodi:namedview
     id="namedview6"
     pagecolor="#ffffff"
     bordercolor="#000000"
     borderopacity="0.25"
     inkscape:showpageshadow="2"
     inkscape:pageopacity="0.0"
     inkscape:pagecheckerboard="0"
     inkscape:deskcolor="#d1d1d1"
     showgrid="false"
     inkscape:zoom="9.8333333"
     inkscape:cx="3.1525424"
     inkscape:cy="12"
     inkscape:window-width="3072"
     inkscape:window-height="1694"
     inkscape:window-x="-11"
     inkscape:window-y="-11"
     inkscape:window-maximized="1"
     inkscape:current-layer="svg4" />
  <path
     fill-rule="evenodd"
     clip-rule="evenodd"
     d="M 2.7557012,5 H 18.662201 c 1.8478,0 3.3333,1.428 3.3378,3.26645 v 7.46705 c 0,1.8805 -1.4426,3.2665 -3.3326,3.2665 H 7.2406912 c -1.66206,0 -2.85668,-1.6425 -2.85668,-3.2665 L 4.3742812,9.66645 2.1791712,6.12 C 1.7701502,5.49445 2.1032112,5 2.7557012,5 Z m 4.95635,11.1994 h 8.0941498 c 0.4856,0 0.9518,-0.3551 0.9518,-0.9336 0,-0.5784 -0.4662,-0.9335 -0.9518,-0.9335 H 7.7120512 c -0.48564,0 -0.9518,0.3551 -0.9518,0.9335 0,0.5785 0.46616,0.9336 0.9518,0.9336 z M 18.662901,12.9329 H 7.7120512 c -0.48109,0 -0.9518,-0.3544 -0.9518,-0.9335 0,-0.5785 0.47071,-0.9329 0.9518,-0.9329 H 18.662901 c 0.4804,0 0.9524,0.3544 0.9524,0.9329 0,0.5791 -0.472,0.9335 -0.9524,0.9335 z M 7.7127012,9.66645 H 18.663501 c 0.4805,0 0.9518,-0.35509 0.9518,-0.93354 0,-0.57845 -0.4661,-0.93355 -0.9472,-0.93355 H 7.7127012 c -0.48109,0 -0.95245,0.3551 -0.95245,0.93355 0,0.57845 0.47136,0.93354 0.95245,0.93354 z"
     fill="#FFF1C0"
     id="path2"
     style="fill:#000000" />
</svg>
