<?xml version="1.0" encoding="UTF-8" standalone="no"?>
<svg
   width="24"
   height="24"
   viewBox="0 0 24 24"
   fill="none"
   version="1.1"
   id="svg1951"
   sodipodi:docname="personal_safety.svg"
   inkscape:version="1.2.1 (9c6d41e410, 2022-07-14)"
   xmlns:inkscape="http://www.inkscape.org/namespaces/inkscape"
   xmlns:sodipodi="http://sodipodi.sourceforge.net/DTD/sodipodi-0.dtd"
   xmlns="http://www.w3.org/2000/svg"
   xmlns:svg="http://www.w3.org/2000/svg">
  <defs
     id="defs1955" />
  <sodipodi:namedview
     id="namedview1953"
     pagecolor="#ffffff"
     bordercolor="#000000"
     borderopacity="0.25"
     inkscape:showpageshadow="2"
     inkscape:pageopacity="0.0"
     inkscape:pagecheckerboard="0"
     inkscape:deskcolor="#d1d1d1"
     showgrid="false"
     inkscape:zoom="55.625733"
     inkscape:cx="8.6290998"
     inkscape:cy="13.698696"
     inkscape:window-width="3072"
     inkscape:window-height="1694"
     inkscape:window-x="1499"
     inkscape:window-y="-11"
     inkscape:window-maximized="1"
     inkscape:current-layer="svg1951" />
  <path
     d="M 9.3000108,7.3234656 6.075401,5.4617244 C 4.7840054,4.71615 3.1327154,5.1586044 2.3871254,6.45 1.641551,7.7413956 2.0840054,9.392686 3.375401,10.138276 L 6.6000254,12 3.375401,13.8618 c -1.2913956,0.7455 -1.73385,2.39685 -0.9882756,3.6882 0.74559,1.29135 2.39688,1.73385 3.6882756,0.98835 l 3.2246098,-1.8618 m 0,-9.3530844 V 3.6 c 0,-1.4911656 1.2088352,-2.7 2.7000002,-2.7 1.49115,0 2.7,1.2088344 2.7,2.7 V 7.32348 M 9.3000108,7.3234656 12.000026,8.88231 m 0,0 2.699985,1.558844 2.7,1.558846 M 12.000026,8.88231 14.700011,7.32348 m -2.699985,7.79427 2.699985,-1.55895 2.7,-1.5588 m -5.399985,3.11775 -2.7000152,1.5588 m 2.7000152,-1.5588 2.699985,1.5588 m -5.4000002,0 V 20.4 c 0,1.49115 1.2088352,2.7 2.7000002,2.7 1.49115,0 2.7,-1.20885 2.7,-2.7 v -3.72345 m 0,0 3.22455,1.86165 c 1.2915,0.74565 2.9427,0.30315 3.68835,-0.9882 0.7455,-1.29135 0.30315,-2.9427 -0.98835,-3.6882 L 17.400011,12 m -2.7,-4.67652 3.22455,-1.86174 c 1.2915,-0.7455756 2.9427,-0.30312 3.68835,0.9882744 0.7455,1.2913812 0.30315,2.9426856 -0.98835,3.6882616 L 17.400011,12"
     stroke="#000000"
     stroke-width="1.8"
     id="path1949" />
</svg>
