<?xml version="1.0" encoding="UTF-8" standalone="no"?>
<svg
   width="24"
   height="24"
   viewBox="0 0 24 24"
   fill="none"
   version="1.1"
   id="svg1951"
   sodipodi:docname="personal_safety.svg"
   inkscape:version="1.2.1 (9c6d41e410, 2022-07-14)"
   xmlns:inkscape="http://www.inkscape.org/namespaces/inkscape"
   xmlns:sodipodi="http://sodipodi.sourceforge.net/DTD/sodipodi-0.dtd"
   xmlns="http://www.w3.org/2000/svg"
   xmlns:svg="http://www.w3.org/2000/svg">
  <defs
     id="defs1955" />
  <sodipodi:namedview
     id="namedview1953"
     pagecolor="#ffffff"
     bordercolor="#000000"
     borderopacity="0.25"
     inkscape:showpageshadow="2"
     inkscape:pageopacity="0.0"
     inkscape:pagecheckerboard="0"
     inkscape:deskcolor="#d1d1d1"
     showgrid="false"
     inkscape:zoom="55.625733"
     inkscape:cx="10.193124"
     inkscape:cy="13.698696"
     inkscape:window-width="3072"
     inkscape:window-height="1694"
     inkscape:window-x="-11"
     inkscape:window-y="-11"
     inkscape:window-maximized="1"
     inkscape:current-layer="svg1951" />
  <path
     d="M 9.7500091,8.102888 7.0628341,6.551437 C 5.9866711,5.930125 4.6105961,6.298837 3.9892711,7.375 c -0.621312,1.076163 -0.2526,2.452238 0.823563,3.073563 L 7.5000211,12 4.8128341,13.5515 c -1.076163,0.62125 -1.444875,1.997375 -0.823563,3.0735 0.621325,1.076125 1.9974,1.444875 3.073563,0.823625 l 2.687175,-1.5515 m 0,-7.794237 V 5 c 0,-1.242638 1.0073619,-2.25 2.2499999,-2.25 1.242625,0 2.25,1.007362 2.25,2.25 v 3.1029 m -4.4999999,-1.2e-5 2.2500119,1.299037 m 0,0 2.249988,1.299037 2.25,1.299038 M 12.000021,9.401925 14.250009,8.1029 m -2.249988,6.495225 2.249988,-1.299125 2.25,-1.299 m -4.499988,2.598125 -2.2500119,1.299 m 2.2500119,-1.299 2.249988,1.299 m -4.4999999,0 V 19 c 0,1.242625 1.0073619,2.25 2.2499999,2.25 1.242625,0 2.25,-1.007375 2.25,-2.25 v -3.102875 m 0,0 2.687125,1.551375 c 1.07625,0.621375 2.45225,0.252625 3.073625,-0.8235 0.62125,-1.076125 0.252625,-2.45225 -0.823625,-3.0735 L 16.500009,12 m -2.25,-3.8971 2.687125,-1.55145 c 1.07625,-0.621313 2.45225,-0.2526 3.073625,0.823562 0.62125,1.076151 0.252625,2.452238 -0.823625,3.073551 L 16.500009,12"
     stroke="#000000"
     stroke-width="1.5"
     id="path1949" />
</svg>
