<?xml version="1.0" encoding="UTF-8" standalone="no"?>
<svg
   version="1.1"
   id="Layer_1"
   x="0px"
   y="0px"
   width="24"
   viewBox="0 0 24 24"
   enable-background="new 0 0 416 416"
   xml:space="preserve"
   sodipodi:docname="download.svg"
   height="24"
   inkscape:version="1.2.1 (9c6d41e410, 2022-07-14)"
   xmlns:inkscape="http://www.inkscape.org/namespaces/inkscape"
   xmlns:sodipodi="http://sodipodi.sourceforge.net/DTD/sodipodi-0.dtd"
   xmlns="http://www.w3.org/2000/svg"
   xmlns:svg="http://www.w3.org/2000/svg"><defs
   id="defs1306" /><sodipodi:namedview
   id="namedview1304"
   pagecolor="#ffffff"
   bordercolor="#000000"
   borderopacity="0.25"
   inkscape:showpageshadow="2"
   inkscape:pageopacity="0.0"
   inkscape:pagecheckerboard="0"
   inkscape:deskcolor="#d1d1d1"
   showgrid="false"
   inkscape:zoom="18.153846"
   inkscape:cx="0.33050848"
   inkscape:cy="8.6483051"
   inkscape:window-width="2400"
   inkscape:window-height="1494"
   inkscape:window-x="-11"
   inkscape:window-y="-11"
   inkscape:window-maximized="1"
   inkscape:current-layer="Layer_1" />


<g
   id="g3660"
   transform="matrix(0.07742678,0,0,0.07742678,-4.6837419,-3.7554487)"><path
     fill="#000000"
     opacity="1"
     stroke="none"
     d="m 257.1817,317.76617 c -2.4637,-3.98492 -4.80879,-7.61895 -6.95624,-11.36624 -1.33093,-2.32251 -3.17407,-3.06549 -5.7617,-3.05758 -19.32884,0.0591 -38.65849,0.0951 -57.98647,-0.0504 -3.18338,-0.0239 -4.98294,1.35123 -6.31466,3.86859 -5.23064,9.88748 -11.79628,18.87992 -18.40868,27.86209 -11.34581,15.41193 -26.78311,22.67374 -45.60835,23.30545 -11.81664,0.39652 -23.151284,-0.89114 -33.029298,-8.50763 -7.157882,-5.51913 -10.759666,-12.77182 -12.457092,-21.37555 -1.939232,-9.8294 0.251038,-19.47839 1.350769,-29.09866 1.746475,-15.27786 4.291207,-30.46802 6.65783,-45.67044 2.240516,-14.39227 4.332313,-28.82172 7.122093,-43.1113 4.585968,-23.48987 27.689688,-44.82664 51.121948,-49.01762 19.68738,-3.52116 36.757,2.10783 52.62312,12.96933 4.48508,3.07036 8.99533,4.46271 14.41941,4.23062 7.98361,-0.34163 16.00207,-0.32225 23.98744,-0.002 4.92442,0.19774 8.94998,-1.239 13.02281,-3.87827 8.9221,-5.78163 18.04767,-11.33914 28.76907,-13.21626 18.79569,-3.29076 35.92231,0.63196 51.24805,12.12981 15.98163,11.9899 23.69174,28.42184 26.43695,47.8283 2.96201,20.93938 6.5943,41.7833 9.64847,62.71055 1.71808,11.77243 3.98797,23.62777 4.00156,35.44806 0.0215,18.74352 -7.65555,33.47018 -31.49241,37.58764 -15.90924,2.74805 -30.98214,0.55554 -45.04083,-7.93054 -7.48001,-4.51511 -12.45602,-11.34012 -17.77472,-17.84857 -3.45755,-4.23102 -6.27353,-8.9863 -9.57907,-13.80976 M 194.7805,198.34196 c -3.13484,0.27202 -5.76201,-0.78331 -8.37411,-2.54818 -5.09044,-3.43935 -10.34247,-6.65007 -15.62175,-9.79749 -18.54837,-11.05809 -37.15714,-7.02916 -52.17711,6.57016 -9.05122,8.19512 -13.91791,18.62215 -15.43669,30.93627 -1.80334,14.62126 -4.634127,29.11303 -6.837023,43.6885 -2.374459,15.71057 -4.389878,31.47611 -6.84031,47.17426 -1.910774,12.24096 2.966042,20.8125 14.167513,23.81183 2.38997,0.63992 4.87653,1.39059 7.3034,1.3414 11.99285,-0.24323 23.27868,-3.00275 31.42216,-12.4841 10.10141,-11.76096 18.22519,-24.95148 25.70889,-38.50693 1.29874,-2.35245 2.51853,-3.92627 5.60219,-3.91455 27.82823,0.10556 55.65708,0.0825 83.48557,0.0238 2.43591,-0.005 3.98947,0.74011 5.18835,2.94843 5.39356,9.93494 11.66718,19.32608 17.81479,28.80646 10.64917,16.4223 24.61069,25.48284 44.97833,22.31613 9.88428,-1.53678 16.75086,-8.56601 16.41367,-18.6413 -0.50403,-15.06064 -3.37796,-29.87729 -5.47284,-44.76434 -1.95917,-13.92252 -4.55597,-27.7574 -6.40182,-41.69315 -2.10486,-15.89085 -5.0886,-31.18919 -18.47355,-42.11867 -10.45773,-8.53923 -21.86255,-13.59488 -35.73477,-11.20047 -9.80786,1.69287 -17.83151,7.0369 -25.7832,12.43755 -5.50763,3.74069 -11.06186,6.03686 -18.0043,5.7511 -11.97765,-0.49301 -23.99033,-0.13506 -36.92739,-0.13674 z"
     id="path1297" /><path
     fill="#000000"
     opacity="1"
     stroke="none"
     d="m 224.10887,50.518173 c 7.81114,4.210427 11.03078,12.069267 9.11766,21.514229 -1.33482,6.589981 -9.07657,12.859329 -16.39868,13.279816 -7.88843,0.45301 -16.1676,-4.500366 -18.34152,-11.892777 -2.08962,-7.105697 -1.89437,-14.546524 3.86841,-19.979809 6.11622,-5.766521 13.66682,-6.120372 21.75413,-2.921459 z"
     id="path1299" /><path
     fill="#000000"
     opacity="1"
     stroke="none"
     d="m 221.6355,114.87241 c 11.87681,4.93812 13.78679,14.31253 10.65346,24.81269 -2.63735,8.83805 -13.91547,13.02369 -23.67743,9.53788 -8.99012,-3.21018 -13.70447,-13.80222 -10.4587,-23.49814 3.05736,-9.13313 12.95569,-13.8376 23.48267,-10.85243 z"
     id="path1301" /></g>
</svg>
