<?xml version="1.0" encoding="UTF-8" standalone="no"?>
<svg
   width="24"
   height="24"
   viewBox="0 0 24 24"
   fill="none"
   version="1.1"
   id="svg26"
   sodipodi:docname="recorder.svg"
   inkscape:version="1.2.1 (9c6d41e410, 2022-07-14)"
   xmlns:inkscape="http://www.inkscape.org/namespaces/inkscape"
   xmlns:sodipodi="http://sodipodi.sourceforge.net/DTD/sodipodi-0.dtd"
   xmlns="http://www.w3.org/2000/svg"
   xmlns:svg="http://www.w3.org/2000/svg">
  <defs
     id="defs30" />
  <sodipodi:namedview
     id="namedview28"
     pagecolor="#ffffff"
     bordercolor="#666666"
     borderopacity="1.0"
     inkscape:pageshadow="2"
     inkscape:pageopacity="0.0"
     inkscape:pagecheckerboard="true"
     showgrid="true"
     inkscape:zoom="17.354167"
     inkscape:cx="-5.0132052"
     inkscape:cy="15.212485"
     inkscape:window-width="3072"
     inkscape:window-height="1694"
     inkscape:window-x="1499"
     inkscape:window-y="-11"
     inkscape:window-maximized="1"
     inkscape:current-layer="svg26"
     inkscape:showpageshadow="2"
     inkscape:deskcolor="#d1d1d1">
    <inkscape:grid
       type="xygrid"
       id="grid1087"
       empspacing="1" />
  </sodipodi:namedview>
  <path
     id="rect24"
     style="fill:#000000;stroke-width:1.46089"
     d="m 8.869572,2.347697 h 2e-6 c 0.433571,0 0.782619,0.3490475 0.782619,0.7826179 V 20.869686 c 0,0.433571 -0.349048,0.782617 -0.782619,0.782617 h -2e-6 c -0.433571,0 -0.782618,-0.349046 -0.782618,-0.782617 V 3.1303149 c 0,-0.4335704 0.349047,-0.7826179 0.782618,-0.7826179 z m 8.609171,4.1740189 h 2e-6 c 0.433571,0 0.782619,0.3490475 0.782619,0.7826179 v 8.8696792 c 0,0.433571 -0.349048,0.782618 -0.782619,0.782618 h -2e-6 c -0.43357,0 -0.782619,-0.349047 -0.782619,-0.782618 V 7.3043338 c 0,-0.4335704 0.349049,-0.7826179 0.782619,-0.7826179 z m -5.739535,0 h 2e-6 c 0.43357,0 0.782618,0.3490475 0.782618,0.7826179 v 8.8696792 c 0,0.433571 -0.349048,0.782618 -0.782618,0.782618 h -2e-6 c -0.433571,0 -0.782619,-0.349047 -0.782619,-0.782618 V 7.3043338 c 0,-0.4335704 0.349048,-0.7826179 0.782619,-0.7826179 z m -5.4782709,0 h 3e-6 c 0.4335703,0 0.7826178,0.3490475 0.7826178,0.7826179 v 8.8696792 c 0,0.433571 -0.3490475,0.782618 -0.7826178,0.782618 h -3e-6 c -0.4335703,0 -0.7826178,-0.349047 -0.7826178,-0.782618 V 7.3043338 c 0,-0.4335704 0.3490475,-0.7826179 0.7826178,-0.7826179 z M 20.348363,9.912904 h 2e-6 c 0.433571,0 0.782619,0.349047 0.782619,0.782617 v 2.608724 c 0,0.433571 -0.349048,0.782619 -0.782619,0.782619 h -2e-6 c -0.43357,0 -0.782619,-0.349048 -0.782619,-0.782619 v -2.608724 c 0,-0.43357 0.349049,-0.782617 0.782619,-0.782617 z m -5.739388,0 h 3e-6 c 0.43357,0 0.782618,0.349047 0.782618,0.782617 v 2.608724 c 0,0.433571 -0.349048,0.782619 -0.782618,0.782619 h -3e-6 c -0.433571,0 -0.782618,-0.349048 -0.782618,-0.782619 v -2.608724 c 0,-0.43357 0.349047,-0.782617 0.782618,-0.782617 z m -11.217732,0 h 2.8e-6 c 0.4335705,0 0.7826181,0.349047 0.7826181,0.782617 v 2.608724 c 0,0.433571 -0.3490476,0.782619 -0.7826181,0.782619 h -2.8e-6 c -0.4335705,0 -0.782618,-0.349048 -0.782618,-0.782619 v -2.608724 c 0,-0.43357 0.3490475,-0.782617 0.782618,-0.782617 z M 24,12.000073 A 0.78261788,0.78261788 0 0 1 23.217382,12.782692 0.78261788,0.78261788 0 0 1 22.434764,12.000073 0.78261788,0.78261788 0 0 1 23.217382,11.217455 0.78261788,0.78261788 0 0 1 24,12.000073 Z m -22.4347642,0 A 0.78261788,0.78261788 0 0 1 0.7826179,12.782692 0.78261788,0.78261788 0 0 1 0,12.000073 0.78261788,0.78261788 0 0 1 0.7826179,11.217455 0.78261788,0.78261788 0 0 1 1.5652358,12.000073 Z" />
</svg>
