<?xml version="1.0" encoding="UTF-8" standalone="no"?>
<svg
   width="24"
   height="24"
   viewBox="0 0 24 24"
   fill="none"
   version="1.1"
   id="svg2361"
   sodipodi:docname="Samsung_wear.svg"
   inkscape:version="1.2.1 (9c6d41e410, 2022-07-14)"
   xmlns:inkscape="http://www.inkscape.org/namespaces/inkscape"
   xmlns:sodipodi="http://sodipodi.sourceforge.net/DTD/sodipodi-0.dtd"
   xmlns="http://www.w3.org/2000/svg"
   xmlns:svg="http://www.w3.org/2000/svg">
  <defs
     id="defs2365" />
  <sodipodi:namedview
     id="namedview2363"
     pagecolor="#ffffff"
     bordercolor="#000000"
     borderopacity="0.25"
     inkscape:showpageshadow="2"
     inkscape:pageopacity="0.0"
     inkscape:pagecheckerboard="0"
     inkscape:deskcolor="#d1d1d1"
     showgrid="false"
     inkscape:zoom="9.8333333"
     inkscape:cx="-5.8983051"
     inkscape:cy="12"
     inkscape:window-width="3072"
     inkscape:window-height="1694"
     inkscape:window-x="1499"
     inkscape:window-y="-11"
     inkscape:window-maximized="1"
     inkscape:current-layer="svg2361" />
  <g
     id="g2488"
     style="fill:#000000"
     transform="matrix(1.2014417,0,0,1.2000001,-2.4028831,-2.1334812)">
    <path
       d="M 2,9 H 3.06325 L 4.09654,12.8262 5.24215,9 H 6.24549 L 7.38362,12.8112 8.40942,9 H 9.43523 L 7.89278,14.466 H 6.88194 L 5.73633,10.6098 4.59073,14.466 h -1.0333 z"
       fill="#FFF1C0"
       id="path2353"
       style="fill:#000000" />
    <path
       d="m 11.349,14.5558 c -0.3444,0 -0.6589,-0.0574 -0.9434,-0.1722 C 10.1211,14.2638 9.87646,14.1016 9.67179,13.8969 9.47212,13.6923 9.31488,13.4527 9.20007,13.1781 9.09025,12.8986 9.03534,12.6016 9.03534,12.2871 c 0,-0.3195 0.05741,-0.619 0.17222,-0.8985 0.1198,-0.2796 0.28203,-0.5217 0.4867,-0.7263 0.20466,-0.2047 0.44424,-0.3669 0.71884,-0.4867 0.2795,-0.1198 0.579,-0.17974 0.8985,-0.17974 0.3245,0 0.624,0.05744 0.8985,0.17224 0.2795,0.1098 0.5191,0.267 0.7188,0.4717 0.1997,0.1997 0.3544,0.4368 0.4643,0.7113 0.1148,0.2746 0.1722,0.5741 0.1722,0.8985 v 0.3819 h -3.5641 c 0.0698,0.3095 0.2221,0.5591 0.4567,0.7488 0.2346,0.1897 0.5316,0.2845 0.891,0.2845 0.2846,0 0.5316,-0.0699 0.7413,-0.2097 0.2097,-0.1397 0.3669,-0.3269 0.4717,-0.5615 l 0.8312,0.4792 c -0.1897,0.3544 -0.4568,0.6414 -0.8012,0.8611 -0.3395,0.2146 -0.7538,0.3219 -1.243,0.3219 z m -0.0374,-3.6689 c -0.3045,0 -0.5691,0.0824 -0.7937,0.2471 -0.2196,0.1647 -0.3744,0.3818 -0.4642,0.6514 h 2.4859 C 12.4647,11.4909 12.3199,11.2688 12.1053,11.119 11.8906,10.9643 11.6261,10.8869 11.3116,10.8869 Z"
       fill="#FFF1C0"
       id="path2355"
       style="fill:#000000" />
    <path
       d="m 16.0324,14.5558 c -0.2645,0 -0.5266,-0.0499 -0.7862,-0.1497 C 14.9916,14.3013 14.762,14.1515 14.5574,13.9568 14.3527,13.7621 14.188,13.525 14.0632,13.2455 13.9384,12.961 13.876,12.639 13.876,12.2796 c 0,-0.3644 0.0599,-0.6864 0.1797,-0.9659 0.1248,-0.2845 0.287,-0.5242 0.4867,-0.7188 0.2047,-0.1947 0.4368,-0.342 0.6963,-0.4418 0.2596,-0.1048 0.5292,-0.15724 0.8087,-0.15724 0.2895,0 0.5566,0.05494 0.8012,0.16474 0.2446,0.1098 0.4467,0.2596 0.6065,0.4492 v -0.5241 h 1.0108 v 4.3803 h -1.0108 v -0.5691 c -0.1598,0.2047 -0.3644,0.3669 -0.614,0.4867 -0.2496,0.1148 -0.5191,0.1722 -0.8087,0.1722 z m 0.1648,-0.9284 c 0.1847,0 0.3569,-0.035 0.5166,-0.1049 0.1647,-0.0698 0.3045,-0.1672 0.4193,-0.292 0.1148,-0.1248 0.2047,-0.2695 0.2696,-0.4343 0.0699,-0.1647 0.1048,-0.3419 0.1048,-0.5316 0,-0.1847 -0.0349,-0.3594 -0.1048,-0.5241 -0.0649,-0.1648 -0.1548,-0.307 -0.2696,-0.4268 -0.1148,-0.1248 -0.2546,-0.2222 -0.4193,-0.292 -0.1597,-0.0699 -0.3319,-0.1049 -0.5166,-0.1049 -0.1897,0 -0.3644,0.035 -0.5242,0.1049 -0.1597,0.0698 -0.2995,0.1647 -0.4193,0.2845 -0.1198,0.1198 -0.2146,0.2621 -0.2845,0.4268 -0.0649,0.1647 -0.0974,0.3419 -0.0974,0.5316 0,0.1897 0.0325,0.3694 0.0974,0.5391 0.0699,0.1648 0.1647,0.3095 0.2845,0.4343 0.1198,0.1198 0.2596,0.2147 0.4193,0.2845 0.1598,0.0699 0.3345,0.1049 0.5242,0.1049 z"
       fill="#FFF1C0"
       id="path2357"
       style="fill:#000000" />
    <path
       d="m 19.0783,10.0857 h 1.0033 v 0.6514 c 0.1997,-0.4342 0.5741,-0.6514 1.1232,-0.6514 0.1597,0 0.302,0.0175 0.4268,0.0524 0.1297,0.035 0.2445,0.0799 0.3444,0.1348 l -0.3819,0.9584 c -0.0749,-0.0499 -0.1597,-0.0898 -0.2546,-0.1198 -0.0898,-0.0349 -0.2071,-0.0524 -0.3519,-0.0524 -0.2945,0 -0.5191,0.0849 -0.6739,0.2546 -0.1497,0.1647 -0.2246,0.4368 -0.2246,0.8161 v 2.3362 h -1.0108 z"
       fill="#FFF1C0"
       id="path2359"
       style="fill:#000000" />
  </g>
</svg>
