<?xml version="1.0" encoding="UTF-8" standalone="no"?>
<svg
   width="24"
   height="24"
   viewBox="0 0 24 24"
   fill="none"
   version="1.1"
   id="svg2512"
   sodipodi:docname="settings.svg"
   inkscape:version="1.2.1 (9c6d41e410, 2022-07-14)"
   xmlns:inkscape="http://www.inkscape.org/namespaces/inkscape"
   xmlns:sodipodi="http://sodipodi.sourceforge.net/DTD/sodipodi-0.dtd"
   xmlns="http://www.w3.org/2000/svg"
   xmlns:svg="http://www.w3.org/2000/svg">
  <defs
     id="defs2516" />
  <sodipodi:namedview
     id="namedview2514"
     pagecolor="#ffffff"
     bordercolor="#000000"
     borderopacity="0.25"
     inkscape:showpageshadow="2"
     inkscape:pageopacity="0.0"
     inkscape:pagecheckerboard="0"
     inkscape:deskcolor="#d1d1d1"
     showgrid="false"
     inkscape:zoom="1.2291667"
     inkscape:cx="23.59322"
     inkscape:cy="96"
     inkscape:window-width="3072"
     inkscape:window-height="1694"
     inkscape:window-x="-11"
     inkscape:window-y="-11"
     inkscape:window-maximized="1"
     inkscape:current-layer="svg2512" />
  <path
     d="M 10.020026,3.631788 9.2752891,3.543128 v 0 z m 3.959975,0 -0.74475,0.08866 v 0 z m 4.277125,2.4694 -0.295625,-0.689301 v 0 z m 1.260125,0.419049 0.6495,-0.375 v 0 z m 0.987,1.709513 0.6495,-0.375 v 0 z M 20.237126,9.5306 19.787876,8.929963 v 0 z m 0,4.938775 0.449125,-0.600625 z m 0.267125,1.300875 0.6495,0.375 v 0 z m -0.987,1.7095 -0.6495,-0.375 v 0 z m -1.260125,0.419125 0.2955,-0.689375 z m -4.277125,2.469375 0.74475,0.08862 z m -3.959975,0 -0.7447369,0.08862 v 0 z M 5.7429141,17.898875 5.4473141,17.2095 v 0 z m -1.26015,-0.419125 -0.649513,0.375 v 0 z m -0.986988,-1.7095 0.649525,-0.375 z m 0.267163,-1.300875 0.44915,0.600625 v 0 z m -1.3e-5,-4.938775 -0.44915,0.600637 v 0 z m -0.26715,-1.30085 0.649513,0.375 v 0 z m 0.986988,-1.7095 -0.649525,-0.375 v 0 z m 1.260137,-0.419063 -0.295587,0.689288 v 0 z m 0.981125,0.420725 -0.295587,0.6893 z m 0,10.956213 0.295588,0.68925 z m -2.194575,-3.581875 -0.44915,-0.600625 z m 9.6029249,5.191875 0.74475,0.08875 z m 4.98175,-8.7178 L 18.665001,9.7697 Z m -2.046125,-3.759213 0.2955,0.6893 z m -2.935625,-1.699287 -0.74475,0.08866 z M 11.013014,2 C 10.126539,2 9.3800761,2.662862 9.2752891,3.543125 L 10.764764,3.72045 C 10.779739,3.5947 10.886376,3.5 11.013014,3.5 Z m 1.973987,0 h -1.973987 v 1.5 h 1.973987 z m 1.73775,1.543125 C 14.619876,2.662862 13.873501,2 12.987001,2 v 1.5 c 0.126625,0 0.23325,0.0947 0.24825,0.22045 z m 0.152375,1.28005 -0.152375,-1.28005 -1.4895,0.177325 0.152375,1.280037 z m 3.084375,0.588712 -1.189125,0.509926 0.591125,1.378599 1.189125,-0.509937 z m 2.20525,0.73335 c -0.44325,-0.767712 -1.3905,-1.082725 -2.20525,-0.73335 l 0.591125,1.378588 c 0.1165,-0.04991 0.25175,-0.0049 0.315125,0.104762 z m 0.987,1.709513 -0.987,-1.709513 -1.299,0.75 0.987,1.709513 z m -0.4675,2.276487 c 0.709875,-0.530887 0.91075,-1.508775 0.4675,-2.276487 l -1.299,0.75 c 0.06325,0.109675 0.03462,0.249375 -0.06688,0.325212 z m -1.123,0.839725 1.123,-0.839725 L 19.787876,8.929962 18.665001,9.7697 Z m 1.123,2.897788 -1.123,-0.83975 -0.89825,1.20125 1.122875,0.83975 z m 0.4675,2.2765 c 0.44325,-0.76775 0.242375,-1.745625 -0.4675,-2.2765 L 19.787876,15.07 c 0.1015,0.07587 0.130125,0.215625 0.06688,0.32525 z m -0.987,1.7095 0.987,-1.7095 -1.299,-0.75 -0.987,1.7095 z m -2.20525,0.733375 c 0.81475,0.349375 1.762,0.03438 2.20525,-0.733375 l -1.299,-0.75 c -0.06338,0.109625 -0.198625,0.154625 -0.315125,0.10475 z m -1.189125,-0.51 1.189125,0.51 0.591125,-1.378625 -1.189,-0.509875 z m -2.047625,2.37875 0.152375,-1.28 -1.4895,-0.177375 -0.152375,1.28 z M 12.987001,22 c 0.8865,0 1.632875,-0.662875 1.73775,-1.543125 l -1.4895,-0.177375 c -0.015,0.12575 -0.121625,0.2205 -0.24825,0.2205 z m -1.973987,0 h 1.973987 V 20.5 H 11.013014 Z M 9.2752891,20.456875 C 9.3800761,21.337125 10.126539,22 11.013014,22 v -1.5 c -0.126638,0 -0.233275,-0.09475 -0.24825,-0.2205 z m -0.12655,-1.063 0.12655,1.063 1.4894749,-0.177375 -0.12655,-1.063 z m -2.7203,-2.605125 -0.981125,0.42075 0.591187,1.378625 0.981113,-0.42075 z m -0.981125,0.42075 c -0.116388,0.04988 -0.251713,0.0049 -0.315025,-0.10475 l -1.299038,0.75 c 0.443238,0.76775 1.390513,1.08275 2.20525,0.733375 z m -0.315025,-0.10475 -0.986988,-1.7095 -1.299037,0.75 0.986987,1.7095 z m -0.986988,-1.7095 c -0.06332,-0.109625 -0.03464,-0.249375 0.06679,-0.32525 l -0.898313,-1.20125 c -0.709925,0.530875 -0.91075,1.50875 -0.467512,2.2765 z m 0.06679,-0.32525 0.766525,-0.573125 -0.898313,-1.20125 -0.766525,0.573125 z M 3.3137781,10.131237 4.0803031,10.70445 4.9786161,9.503175 4.2120781,8.929963 Z M 2.8462511,7.85475 c -0.443237,0.767712 -0.242412,1.7456 0.467525,2.276487 l 0.8983,-1.201274 c -0.101412,-0.07584 -0.1301,-0.215538 -0.06679,-0.325213 z m 0.986988,-1.7095 -0.986988,1.7095 1.299038,0.75 0.986987,-1.7095 z m 2.20525,-0.733363 C 5.2237641,5.062512 4.2764761,5.377537 3.8332391,6.14525 l 1.299037,0.75 c 0.06332,-0.109675 0.19865,-0.154688 0.315038,-0.104775 z m 0.981125,0.420738 -0.981125,-0.420738 -0.591175,1.378588 0.981125,0.420738 z m 2.255675,-2.2895 -0.12655,1.063 1.4894749,0.177325 0.12655,-1.063 z M 9.0560011,6.987113 C 9.8158011,6.558813 10.517276,5.79935 10.638214,4.78345 L 9.1487391,4.606125 C 9.1009891,5.0072 8.8026891,5.408 8.3194141,5.680437 Z m -2.627562,0.2241 c 0.910587,0.390487 1.881937,0.196237 2.627562,-0.2241 L 8.3194141,5.680437 c -0.463075,0.261038 -0.935175,0.30855 -1.2998,0.152188 z M 6.1250011,12 c 0,-0.88745 -0.318562,-1.877788 -1.146387,-2.496825 l -0.898313,1.201275 c 0.339663,0.253988 0.5447,0.725187 0.5447,1.29555 z m 2.931013,5.012875 C 8.3103761,16.5925 7.3390261,16.39825 6.4284391,16.78875 l 0.591175,1.378625 c 0.364637,-0.156375 0.836725,-0.108875 1.2998,0.15225 z m -4.0774,-2.516 C 5.8064391,13.87775 6.1250011,12.8875 6.1250011,12 h -1.5 c 0,0.570375 -0.205037,1.041625 -0.5447,1.295625 z m 9.8347619,2.446875 c -0.692,0.41225 -1.314625,1.12275 -1.42575,2.05575 l 1.4895,0.177375 c 0.04113,-0.345625 0.28975,-0.69775 0.704,-0.944625 z m 2.55025,-0.244125 c -0.88675,-0.38025 -1.833625,-0.182875 -2.55025,0.244125 l 0.76775,1.2885 c 0.42275,-0.251875 0.859,-0.2965 1.19125,-0.154125 z M 10.638214,19.2165 C 10.517276,18.200625 9.8158011,17.44125 9.0560141,17.012875 l -0.7366,1.30675 c 0.483275,0.272375 0.781575,0.673125 0.829325,1.07425 z M 17.625001,12 c 0,0.798625 0.29975,1.67675 1.04,2.23025 l 0.89825,-1.20125 c -0.2665,-0.19925 -0.43825,-0.570525 -0.43825,-1.029 z m 1.04,-2.2303 c -0.74025,0.553537 -1.04,1.431637 -1.04,2.2303 h 1.5 c 0,-0.458475 0.17175,-0.829713 0.43825,-1.029038 z M 14.813376,7.0563 c 0.716625,0.427 1.6635,0.624337 2.550125,0.244112 L 16.772376,5.921813 c -0.33225,0.142487 -0.7685,0.09775 -1.19125,-0.154126 z m -1.42575,-2.055813 c 0.111125,0.933063 0.73375,1.643538 1.42575,2.055813 l 0.76775,-1.288613 c -0.41425,-0.246825 -0.662875,-0.598912 -0.704,-0.944512 z"
     fill="#000000"
     id="path2508"
     style="stroke-width:0.125" />
  <path
     d="m 12,15 c 1.656875,0 3,-1.343125 3,-3 0,-1.65685 -1.343125,-3 -3,-3 -1.65685,0 -3,1.34315 -3,3 0,1.656875 1.34315,3 3,3 z"
     stroke="#000000"
     stroke-width="1.5"
     stroke-linecap="round"
     stroke-linejoin="round"
     id="path2510" />
</svg>
