<?xml version="1.0" encoding="UTF-8" standalone="no"?>
<svg
   width="24"
   height="24"
   viewBox="0 0 24 24"
   fill="none"
   version="1.1"
   id="svg2512"
   sodipodi:docname="settings.svg"
   inkscape:version="1.2.1 (9c6d41e410, 2022-07-14)"
   xmlns:inkscape="http://www.inkscape.org/namespaces/inkscape"
   xmlns:sodipodi="http://sodipodi.sourceforge.net/DTD/sodipodi-0.dtd"
   xmlns="http://www.w3.org/2000/svg"
   xmlns:svg="http://www.w3.org/2000/svg">
  <defs
     id="defs2516" />
  <sodipodi:namedview
     id="namedview2514"
     pagecolor="#ffffff"
     bordercolor="#000000"
     borderopacity="0.25"
     inkscape:showpageshadow="2"
     inkscape:pageopacity="0.0"
     inkscape:pagecheckerboard="0"
     inkscape:deskcolor="#d1d1d1"
     showgrid="false"
     inkscape:zoom="1.2291667"
     inkscape:cx="-47.186439"
     inkscape:cy="95.999997"
     inkscape:window-width="3072"
     inkscape:window-height="1694"
     inkscape:window-x="1499"
     inkscape:window-y="-11"
     inkscape:window-maximized="1"
     inkscape:current-layer="svg2512" />
  <path
     d="m 9.6240311,1.9581456 -0.893684,-0.106392 v 0 z m 4.7519699,0 -0.8937,0.106392 v 0 z m 5.13255,2.96328 -0.35475,-0.8271612 v 0 z m 1.51215,0.5028588 0.7794,-0.45 v 0 z m 1.1844,2.0514156 0.7794,-0.45 v 0 z m -0.32055,1.56102 -0.5391,-0.720764 v 0 z m 0,5.92653 0.53895,-0.72075 z m 0.32055,1.56105 0.7794,0.45 v 0 z m -1.1844,2.0514 -0.7794,-0.45 v 0 z m -1.51215,0.50295 0.3546,-0.82725 z m -5.13255,2.96325 0.8937,0.106344 z m -4.7519699,0 -0.893684,0.106344 v 0 z M 4.4914972,19.07865 4.1367772,18.2514 v 0 z m -1.51218,-0.50295 -0.7794156,0.45 v 0 z m -1.1843856,-2.0514 0.77943,-0.45 z m 0.3205956,-1.56105 0.53898,0.72075 v 0 z m -1.56e-5,-5.92653 -0.53898,0.720764 v 0 z m -0.32058,-1.56102 0.7794156,0.45 v 0 z m 1.1843856,-2.0514 -0.77943,-0.45 v 0 z M 4.4914816,4.9214244 4.1367772,5.74857 v 0 z m 1.17735,0.50487 -0.3547044,0.82716 z m 0,13.1474556 0.3547056,0.8271 z m -2.63349,-4.29825 -0.53898,-0.72075 z m 11.5235094,6.23025 0.8937,0.1065 z m 5.9781,-10.46136 -0.53895,-0.72075 z m -2.45535,-4.5110556 0.3546,0.82716 z M 14.558851,3.49419 13.665151,3.600582 Z M 10.815617,0 C 9.7518471,0 8.8560921,0.7954344 8.7303471,1.85175 L 10.517717,2.06454 C 10.535687,1.91364 10.663651,1.8 10.815617,1.8 Z m 2.368784,0 h -2.368784 v 1.8 h 2.368784 z m 2.0853,1.85175 C 15.143851,0.7954344 14.248201,0 13.184401,0 v 1.8 c 0.15195,0 0.2799,0.11364 0.2979,0.26454 z m 0.18285,1.53606 -0.18285,-1.53606 -1.7874,0.21279 0.18285,1.5360444 z m 3.70125,0.7064544 -1.42695,0.6119112 0.70935,1.6543188 1.42695,-0.6119244 z m 2.6463,0.88002 c -0.5319,-0.9212544 -1.6686,-1.29927 -2.6463,-0.88002 l 0.70935,1.6543056 c 0.1398,-0.059892 0.3021,-0.00588 0.37815,0.1257144 z m 1.1844,2.0514156 -1.1844,-2.0514156 -1.5588,0.9 1.1844,2.0514156 z m -0.561,2.731784 c 0.85185,-0.637064 1.0929,-1.8105296 0.561,-2.731784 l -1.5588,0.9 c 0.0759,0.13161 0.04154,0.29925 -0.08026,0.390254 z m -1.3476,1.00767 1.3476,-1.00767 -1.07805,-1.44153 -1.34745,1.007686 z m 1.3476,3.477346 -1.3476,-1.0077 -1.0779,1.4415 1.34745,1.0077 z m 0.561,2.7318 c 0.5319,-0.9213 0.29085,-2.09475 -0.561,-2.7318 l -1.07805,1.4415 c 0.1218,0.09104 0.15615,0.25875 0.08026,0.3903 z m -1.1844,2.0514 1.1844,-2.0514 -1.5588,-0.9 -1.1844,2.0514 z m -2.6463,0.88005 c 0.9777,0.41925 2.1144,0.04126 2.6463,-0.88005 l -1.5588,-0.9 c -0.07606,0.13155 -0.23835,0.18555 -0.37815,0.1257 z m -1.42695,-0.612 1.42695,0.612 0.70935,-1.65435 -1.4268,-0.61185 z m -2.45715,2.8545 0.18285,-1.536 -1.7874,-0.21285 -0.18285,1.536 z M 13.184401,24 c 1.0638,0 1.95945,-0.79545 2.0853,-1.85175 l -1.7874,-0.21285 c -0.018,0.1509 -0.14595,0.2646 -0.2979,0.2646 z m -2.368784,0 h 2.368784 V 22.2 H 10.815617 Z M 8.7303471,22.14825 C 8.8560921,23.20455 9.7518471,24 10.815617,24 v -1.8 c -0.151966,0 -0.27993,-0.1137 -0.2979,-0.2646 z m -0.15186,-1.2756 0.15186,1.2756 1.7873699,-0.21285 -0.15186,-1.2756 z m -3.2643599,-3.12615 -1.17735,0.5049 0.7094244,1.65435 1.1773356,-0.5049 z m -1.17735,0.5049 c -0.1396656,0.05986 -0.3020556,0.0059 -0.37803,-0.1257 l -1.5588456,0.9 c 0.5318856,0.9213 1.6686156,1.2993 2.6463,0.88005 z m -0.37803,-0.1257 -1.1843856,-2.0514 -1.5588444,0.9 1.1843844,2.0514 z M 2.5743616,16.0743 C 2.4983776,15.94275 2.5327936,15.77505 2.6545096,15.684 L 1.576534,14.2425 C 0.72462402,14.87955 0.48363402,16.053 1.0155196,16.9743 Z m 0.080148,-0.3903 0.91983,-0.68775 -1.0779756,-1.4415 -0.91983,0.68775 z M 1.576534,9.757484 2.496364,10.44534 3.5743396,9.00381 2.654494,8.315956 Z M 1.0155016,7.0257 c -0.53188438,0.9212544 -0.29089438,2.09472 0.56103,2.731784 l 1.07796,-1.441528 C 2.5327972,8.224948 2.4983716,8.05731 2.5743436,7.9257 Z m 1.1843856,-2.0514 -1.1843856,2.0514 1.5588456,0.9 1.1843844,-2.0514 z m 2.6463,-0.8800356 c -0.97767,-0.41925 -2.1144156,-0.04122 -2.6463,0.8800356 l 1.5588444,0.9 c 0.075984,-0.13161 0.23838,-0.1856256 0.3780456,-0.12573 z m 1.17735,0.5048856 -1.17735,-0.5048856 -0.70941,1.6543056 1.17735,0.5048856 z m 2.7068099,-2.7474 -0.15186,1.2756 1.7873699,0.21279 0.15186,-1.2756 z M 8.4672021,5.9845356 C 9.3789621,5.4705756 10.220731,4.55922 10.365857,3.34014 L 8.5784871,3.12735 c -0.0573,0.48129 -0.41526,0.96225 -0.9951899,1.2891744 z m -3.1530749,0.26892 C 6.4068316,6.72204 7.5724516,6.48894 8.4672021,5.9845356 L 7.5832972,4.4165244 c -0.55569,0.3132456 -1.12221,0.37026 -1.55976,0.1826256 z M 4.9500016,12 c 0,-1.06494 -0.3822744,-2.253346 -1.3756644,-2.99619 l -1.0779756,1.44153 c 0.4075956,0.304786 0.65364,0.870224 0.65364,1.55466 z m 3.5172155,6.01545 C 7.5724516,17.511 6.4068316,17.2779 5.3141272,17.7465 l 0.70941,1.65435 c 0.4375644,-0.18765 1.00407,-0.13065 1.55976,0.1827 z M 3.5743372,14.99625 C 4.5677272,14.2533 4.9500016,13.065 4.9500016,12 h -1.8 c 0,0.68445 -0.2460444,1.24995 -0.65364,1.55475 z M 15.376051,17.9325 c -0.8304,0.4947 -1.57755,1.3473 -1.7109,2.4669 l 1.7874,0.21285 c 0.04936,-0.41475 0.3477,-0.8373 0.8448,-1.13355 z m 3.0603,-0.29295 c -1.0641,-0.4563 -2.20035,-0.21945 -3.0603,0.29295 l 0.9213,1.5462 c 0.5073,-0.30225 1.0308,-0.3558 1.4295,-0.18495 z M 10.365857,20.6598 C 10.220731,19.44075 9.3789621,18.5295 8.4672171,18.01545 l -0.8839199,1.5681 c 0.5799299,0.32685 0.9378899,0.80775 0.9951899,1.2891 z M 18.750001,12 c 0,0.95835 0.3597,2.0121 1.248,2.6763 l 1.0779,-1.4415 c -0.3198,-0.2391 -0.5259,-0.68463 -0.5259,-1.2348 z m 1.248,-2.67636 c -0.8883,0.664244 -1.248,1.717964 -1.248,2.67636 h 1.8 c 0,-0.55017 0.2061,-0.995656 0.5259,-1.234846 z m -4.62195,-3.25608 c 0.85995,0.5124 1.9962,0.7492044 3.06015,0.2929344 l -0.70935,-1.6543188 c -0.3987,0.1709844 -0.9222,0.1173 -1.4295,-0.1849512 z m -1.7109,-2.4669756 c 0.13335,1.1196756 0.8805,1.9722456 1.7109,2.4669756 l 0.9213,-1.5463356 c -0.4971,-0.29619 -0.79545,-0.7186944 -0.8448,-1.1334144 z"
     fill="#000000"
     id="path2508"
     style="stroke-width:0.15" />
  <path
     d="m 12,15.6 c 1.98825,0 3.6,-1.61175 3.6,-3.6 0,-1.98822 -1.61175,-3.6 -3.6,-3.6 -1.98822,0 -3.6,1.61178 -3.6,3.6 0,1.98825 1.61178,3.6 3.6,3.6 z"
     stroke="#000000"
     stroke-width="1.8"
     stroke-linecap="round"
     stroke-linejoin="round"
     id="path2510" />
</svg>
