<?xml version="1.0" encoding="UTF-8" standalone="no"?>
<svg
   width="24"
   height="24"
   viewBox="0 0 24 24"
   fill="none"
   version="1.1"
   id="svg4"
   sodipodi:docname="sync.svg"
   inkscape:version="1.2.1 (9c6d41e410, 2022-07-14)"
   xmlns:inkscape="http://www.inkscape.org/namespaces/inkscape"
   xmlns:sodipodi="http://sodipodi.sourceforge.net/DTD/sodipodi-0.dtd"
   xmlns="http://www.w3.org/2000/svg"
   xmlns:svg="http://www.w3.org/2000/svg">
  <defs
     id="defs8" />
  <sodipodi:namedview
     id="namedview6"
     pagecolor="#ffffff"
     bordercolor="#666666"
     borderopacity="1.0"
     inkscape:pageshadow="2"
     inkscape:pageopacity="0.0"
     inkscape:pagecheckerboard="0"
     showgrid="false"
     inkscape:zoom="22.892582"
     inkscape:cx="3.6693109"
     inkscape:cy="9.9595581"
     inkscape:window-width="3072"
     inkscape:window-height="1694"
     inkscape:window-x="1499"
     inkscape:window-y="-11"
     inkscape:window-maximized="1"
     inkscape:current-layer="svg4"
     inkscape:showpageshadow="2"
     inkscape:deskcolor="#d1d1d1" />
  <path
     d="m 24,12.172037 c 0,-1.462364 -1.182763,-2.6236473 -2.623637,-2.6236473 -0.709745,0 -1.354909,0.279578 -1.827926,0.7311383 C 17.741891,8.9892547 15.2688,8.1505421 12.516109,8.0430111 l 1.204363,-5.6344037 3.913965,0.8387128 c 0.04298,0.9892472 0.860181,1.7849454 1.870909,1.7849454 1.032326,0 1.871017,-0.8387128 1.871017,-1.8709745 0,-1.0322509 -0.838691,-1.8709637 -1.871017,-1.8709637 -0.731128,0 -1.376292,0.4301128 -1.677383,1.0537637 l -4.3656,-0.9247309 c -0.129054,-0.021502 -0.258109,0 -0.344072,0.064517 -0.107568,0.064517 -0.172037,0.1720472 -0.193528,0.30108 L 11.591346,8.0645238 C 8.795695,8.1505421 6.2795672,8.9892547 4.4516182,10.301128 3.9784909,9.8494697 3.3333382,9.5699017 2.6236582,9.5699017 1.1612946,9.5699017 0,10.752654 0,12.193528 c 0,1.075309 0.6451637,1.978472 1.5483928,2.387128 -0.043014,0.258109 -0.064517,0.516109 -0.064517,0.795709 0,4.043017 4.7096727,7.333308 10.5161242,7.333308 5.806472,0 10.516146,-3.2688 10.516146,-7.333309 0,-0.258108 -0.02149,-0.5376 -0.06458,-0.795708 C 23.354837,14.172 24,13.247346 24,12.172037 Z M 5.9784982,14.043056 c 0,-1.032328 0.8387018,-1.871019 1.8709636,-1.871019 1.0322622,0 1.8709752,0.838691 1.8709752,1.871019 0,1.032218 -0.838713,1.870909 -1.8709752,1.870909 C 6.8172,15.935456 5.9784982,15.075274 5.9784982,14.043056 Z M 16.451563,19.010727 C 15.161346,20.301054 12.709637,20.387128 12,20.387128 c -0.731237,0 -3.182793,-0.107568 -4.4516182,-1.3764 -0.1935381,-0.193528 -0.1935381,-0.494618 0,-0.688146 0.1935491,-0.193526 0.4946292,-0.193526 0.6881782,0 0.8172,0.8172 2.537586,1.0968 3.76344,1.0968 1.225854,0 2.967709,-0.2796 3.763418,-1.0968 0.193528,-0.193526 0.494619,-0.193526 0.688145,0 0.172146,0.193528 0.172146,0.494618 0,0.688145 z m -0.344072,-3.075273 c -1.032219,0 -1.870909,-0.83869 -1.870909,-1.870909 0,-1.032326 0.83869,-1.871018 1.870909,-1.871018 1.032327,0 1.871018,0.838692 1.871018,1.871018 0,1.010728 -0.838691,1.870909 -1.871018,1.870909 z"
     fill="#000000"
     id="path2"
     style="stroke-width:1.09091" />
</svg>
