<?xml version="1.0" encoding="UTF-8" standalone="no"?>
<svg
   width="24"
   height="24"
   viewBox="0 0 24 24"
   fill="none"
   version="1.1"
   id="svg4"
   sodipodi:docname="telegram.svg"
   inkscape:version="1.2.1 (9c6d41e410, 2022-07-14)"
   xmlns:inkscape="http://www.inkscape.org/namespaces/inkscape"
   xmlns:sodipodi="http://sodipodi.sourceforge.net/DTD/sodipodi-0.dtd"
   xmlns="http://www.w3.org/2000/svg"
   xmlns:svg="http://www.w3.org/2000/svg">
  <defs
     id="defs8" />
  <sodipodi:namedview
     id="namedview6"
     pagecolor="#ffffff"
     bordercolor="#666666"
     borderopacity="1.0"
     inkscape:pageshadow="2"
     inkscape:pageopacity="0.0"
     inkscape:pagecheckerboard="0"
     showgrid="false"
     inkscape:zoom="22.627417"
     inkscape:cx="1.9887378"
     inkscape:cy="11.490485"
     inkscape:window-width="3072"
     inkscape:window-height="1694"
     inkscape:window-x="1499"
     inkscape:window-y="-11"
     inkscape:window-maximized="1"
     inkscape:current-layer="svg4"
     inkscape:showpageshadow="2"
     inkscape:deskcolor="#d1d1d1" />
  <path
     d="m 1.4713839,10.720152 c 0,0 10.6146591,-4.3563366 14.2960261,-5.8902315 1.411083,-0.6135648 6.196904,-2.5769677 6.196904,-2.5769677 0,0 2.208797,-0.8589816 2.024797,1.2271296 -0.06137,0.8589816 -0.552228,3.8654344 -1.043084,7.1173276 -0.736228,4.601708 -1.533941,9.632901 -1.533941,9.632901 0,0 -0.122628,1.411197 -1.165712,1.656568 -1.043084,0.245485 -2.761024,-0.858969 -3.067881,-1.104341 -0.245371,-0.184114 -4.601708,-2.945139 -6.196917,-4.294965 -0.429496,-0.368114 -0.920342,-1.104455 0.06136,-1.963426 2.20882,-2.024683 4.847102,-4.5403363 6.442414,-6.1355803 0.736224,-0.7362732 1.472565,-2.4542364 -1.595316,-0.3681366 -4.356223,3.0064649 -8.651188,5.8288609 -8.651188,5.8288609 0,0 -0.98169,0.613484 -2.8223729,0.06137 C 2.57579,13.358433 0.42832241,12.622092 0.42832241,12.622092 c 0,0 -1.47254641,-0.920343 1.04305789,-1.901941 z"
     fill="#000000"
     id="path2"
     style="stroke-width:1.14286" />
</svg>
