<?xml version="1.0" encoding="UTF-8" standalone="no"?>
<svg
   width="24"
   height="24"
   viewBox="0 0 24 24"
   fill="none"
   version="1.1"
   id="svg4"
   sodipodi:docname="telegram.svg"
   inkscape:version="1.2.1 (9c6d41e410, 2022-07-14)"
   xmlns:inkscape="http://www.inkscape.org/namespaces/inkscape"
   xmlns:sodipodi="http://sodipodi.sourceforge.net/DTD/sodipodi-0.dtd"
   xmlns="http://www.w3.org/2000/svg"
   xmlns:svg="http://www.w3.org/2000/svg">
  <defs
     id="defs8" />
  <sodipodi:namedview
     id="namedview6"
     pagecolor="#ffffff"
     bordercolor="#666666"
     borderopacity="1.0"
     inkscape:pageshadow="2"
     inkscape:pageopacity="0.0"
     inkscape:pagecheckerboard="0"
     showgrid="false"
     inkscape:zoom="22.627417"
     inkscape:cx="5.8336309"
     inkscape:cy="11.490485"
     inkscape:window-width="3072"
     inkscape:window-height="1694"
     inkscape:window-x="-11"
     inkscape:window-y="-11"
     inkscape:window-maximized="1"
     inkscape:current-layer="svg4"
     inkscape:showpageshadow="2"
     inkscape:deskcolor="#d1d1d1" />
  <path
     d="m 3.2261505,10.93346 c 0,0 8.8455505,-3.6302811 11.9133565,-4.9085271 1.175903,-0.5113041 5.164088,-2.1474734 5.164088,-2.1474734 0,0 1.840664,-0.7158181 1.687331,1.0226082 -0.05114,0.7158181 -0.46019,3.2211958 -0.869237,5.9311073 -0.613523,3.834757 -1.278284,8.027418 -1.278284,8.027418 0,0 -0.10219,1.175998 -0.971427,1.380474 -0.869237,0.204571 -2.300854,-0.715808 -2.556568,-0.920284 -0.204476,-0.153429 -3.834757,-2.454283 -5.164098,-3.579138 -0.357914,-0.306762 -0.766952,-0.92038 0.05113,-1.636189 1.840683,-1.687236 4.039252,-3.783614 5.368679,-5.1129841 0.613523,-0.6135611 1.227141,-2.0451973 -1.329427,-0.3067806 -3.630186,2.5053877 -7.2093243,4.8573847 -7.2093243,4.8573847 0,0 -0.8180751,0.511237 -2.3519778,0.05114 -1.5339028,-0.46019 -3.3234594,-1.073808 -3.3234594,-1.073808 0,0 -1.2271222,-0.766952 0.869215,-1.584951 z"
     fill="#000000"
     id="path2"
     style="stroke-width:0.95238" />
</svg>
