<?xml version="1.0" encoding="UTF-8" standalone="no"?>
<svg
   width="24"
   height="24"
   viewBox="0 0 24 24"
   fill="none"
   version="1.1"
   id="svg4"
   sodipodi:docname="telegram.svg"
   inkscape:version="1.2.1 (9c6d41e410, 2022-07-14)"
   xmlns:inkscape="http://www.inkscape.org/namespaces/inkscape"
   xmlns:sodipodi="http://sodipodi.sourceforge.net/DTD/sodipodi-0.dtd"
   xmlns="http://www.w3.org/2000/svg"
   xmlns:svg="http://www.w3.org/2000/svg">
  <defs
     id="defs8" />
  <sodipodi:namedview
     id="namedview6"
     pagecolor="#ffffff"
     bordercolor="#666666"
     borderopacity="1.0"
     inkscape:pageshadow="2"
     inkscape:pageopacity="0.0"
     inkscape:pagecheckerboard="0"
     showgrid="false"
     inkscape:zoom="22.627417"
     inkscape:cx="-1.8561553"
     inkscape:cy="11.490485"
     inkscape:window-width="3072"
     inkscape:window-height="1694"
     inkscape:window-x="1499"
     inkscape:window-y="-11"
     inkscape:window-maximized="1"
     inkscape:current-layer="svg4"
     inkscape:showpageshadow="2"
     inkscape:deskcolor="#d1d1d1" />
  <path
     d="m 1.2261573,10.93346 c 0,0 8.8455487,-3.6302805 11.9133547,-4.9085262 1.175903,-0.511304 5.164087,-2.1474731 5.164087,-2.1474731 0,0 1.840664,-0.715818 1.687331,1.022608 -0.05114,0.715818 -0.46019,3.2211953 -0.869237,5.9311063 -0.613523,3.834756 -1.278284,8.027417 -1.278284,8.027417 0,0 -0.10219,1.175997 -0.971427,1.380473 -0.869236,0.204571 -2.300853,-0.715807 -2.556567,-0.920284 -0.204476,-0.153428 -3.834757,-2.454282 -5.1640977,-3.579137 -0.357913,-0.306762 -0.766951,-0.92038 0.05113,-1.636189 1.8406827,-1.687236 4.0392507,-3.783613 5.3686777,-5.1129828 0.61352,-0.6135609 1.227137,-2.0451969 -1.32943,-0.3067805 -3.6301857,2.5053873 -7.2093237,4.8573833 -7.2093237,4.8573833 0,0 -0.818075,0.511237 -2.351977,0.05114 -1.533903,-0.46019 -3.32345898,-1.073808 -3.32345898,-1.073808 0,0 -1.227122,-0.766952 0.86921498,-1.58495 z"
     fill="#000000"
     id="path2"
     style="stroke-width:0.952383" />
</svg>
