<?xml version="1.0" encoding="UTF-8" standalone="no"?>
<svg
   width="24"
   height="24"
   viewBox="0 0 24 24"
   fill="none"
   version="1.1"
   id="svg4"
   sodipodi:docname="twitter.svg"
   inkscape:version="1.2.1 (9c6d41e410, 2022-07-14)"
   xmlns:inkscape="http://www.inkscape.org/namespaces/inkscape"
   xmlns:sodipodi="http://sodipodi.sourceforge.net/DTD/sodipodi-0.dtd"
   xmlns="http://www.w3.org/2000/svg"
   xmlns:svg="http://www.w3.org/2000/svg">
  <defs
     id="defs8" />
  <sodipodi:namedview
     id="namedview6"
     pagecolor="#ffffff"
     bordercolor="#666666"
     borderopacity="1.0"
     inkscape:pageshadow="2"
     inkscape:pageopacity="0.0"
     inkscape:pagecheckerboard="0"
     showgrid="false"
     inkscape:zoom="32.375"
     inkscape:cx="9.2972973"
     inkscape:cy="11.984556"
     inkscape:window-width="3072"
     inkscape:window-height="1694"
     inkscape:window-x="1499"
     inkscape:window-y="-11"
     inkscape:window-maximized="1"
     inkscape:current-layer="svg4"
     inkscape:showpageshadow="2"
     inkscape:deskcolor="#d1d1d1" />
  <path
     d="m 24,4.5570002 c -0.882991,0.3920036 -1.832035,0.6559931 -2.828035,0.7750018 1.017079,-0.6090052 1.798017,-1.5740035 2.165009,-2.724 -0.951026,0.564 -2.004939,0.9739931 -3.126992,1.1950018 C 19.313009,2.8459985 18.032035,2.248002 16.616035,2.248002 c -3.179061,0 -5.514991,2.9659931 -4.797079,6.0449948 C 7.728,8.0879951 4.1000035,6.1279985 1.6709948,3.1490038 0.3810052,5.362002 1.002,8.2569968 3.1940035,9.722989 2.388,9.697007 1.6280035,9.475998 0.9649982,9.107025 c -0.054,2.280939 1.5810053,4.414957 3.9490018,4.889948 -0.6929948,0.188034 -1.452,0.232069 -2.2239965,0.084 0.625993,1.956 2.443993,3.378991 4.5999965,3.41906 -2.07,1.622922 -4.6779965,2.347931 -7.29,2.04 2.1790018,1.397009 4.7679965,2.211965 7.548,2.211965 9.142018,0 14.307026,-7.721008 13.995026,-14.6459995 C 22.505009,6.4110002 23.34,5.5439951 24,4.5570002 Z"
     fill="#000000"
     id="path2"
     style="stroke-width:1.04348" />
</svg>
