<?xml version="1.0" encoding="UTF-8" standalone="no"?>
<!-- Generator: Adobe Illustrator 16.0.0, SVG Export Plug-In . SVG Version: 6.00 Build 0)  -->

<svg
   version="1.1"
   id="Capa_1"
   x="0px"
   y="0px"
   width="24"
   height="24"
   viewBox="0 0 24 24"
   xml:space="preserve"
   sodipodi:docname="llave-inglesa-fendas.svg"
   inkscape:version="1.2.1 (9c6d41e410, 2022-07-14)"
   xmlns:inkscape="http://www.inkscape.org/namespaces/inkscape"
   xmlns:sodipodi="http://sodipodi.sourceforge.net/DTD/sodipodi-0.dtd"
   xmlns="http://www.w3.org/2000/svg"
   xmlns:svg="http://www.w3.org/2000/svg"><defs
   id="defs39" /><sodipodi:namedview
   id="namedview37"
   pagecolor="#ffffff"
   bordercolor="#000000"
   borderopacity="0.25"
   inkscape:showpageshadow="2"
   inkscape:pageopacity="0.0"
   inkscape:pagecheckerboard="0"
   inkscape:deskcolor="#d1d1d1"
   showgrid="false"
   inkscape:zoom="22.121071"
   inkscape:cx="22.738502"
   inkscape:cy="18.082307"
   inkscape:window-width="2400"
   inkscape:window-height="1494"
   inkscape:window-x="-11"
   inkscape:window-y="-11"
   inkscape:window-maximized="1"
   inkscape:current-layer="g4" />
<g
   id="g4">
	<path
   d="M 0.93277523,6.2817849 C 0.94985408,6.0835672 1.0804057,5.9132879 1.266928,5.84539 1.4539142,5.7770707 1.6632237,5.82358 1.8038927,5.9640143 L 4.682015,8.8419508 7.8726627,7.8316961 8.8829177,4.641095 6.0047491,1.7629266 C 5.8638945,1.6222111 5.8179485,1.4128546 5.8858,1.2261933 5.9543474,1.0391608 6.1242087,0.90888742 6.322844,0.8917158 c 1.7479434,-0.15060101 3.4606153,0.4734758 4.698884,1.7119293 1.695917,1.6960575 2.145028,4.1727781 1.349744,6.2838805 0.08692,0.073238 0.172693,0.1508329 0.257298,0.234511 l 9.607307,9.0655614 c 0.0034,0.0033 0.0068,0.007 0.0104,0.01017 1.129853,1.129901 1.129853,2.968343 0,4.098429 -1.130039,1.129808 -2.955024,1.11607 -4.084693,-0.01383 -0.0048,-0.0045 -0.0094,-0.0091 -0.01378,-0.01416 L 9.1615175,12.586085 C 9.0796039,12.503803 9.0035375,12.41771 8.931834,12.329345 6.8201746,13.126067 4.3418753,12.678024 2.6444724,10.980853 1.4064831,9.742307 0.78198888,8.0294964 0.93277523,6.2817849 Z"
   id="path2"
   style="fill:#000000;fill-opacity:0;stroke:#000000;stroke-width:1.73939;stroke-dasharray:none;stroke-opacity:1"
   sodipodi:nodetypes="ccccccccccccccccccccc" />
</g>
<g
   id="g6">
</g>
<g
   id="g8">
</g>
<g
   id="g10">
</g>
<g
   id="g12">
</g>
<g
   id="g14">
</g>
<g
   id="g16">
</g>
<g
   id="g18">
</g>
<g
   id="g20">
</g>
<g
   id="g22">
</g>
<g
   id="g24">
</g>
<g
   id="g26">
</g>
<g
   id="g28">
</g>
<g
   id="g30">
</g>
<g
   id="g32">
</g>
<g
   id="g34">
</g>
</svg>
