<?xml version="1.0" encoding="UTF-8" standalone="no"?>
<svg
   width="24"
   height="24"
   viewBox="0 0 24 24"
   fill="none"
   version="1.1"
   id="svg6"
   sodipodi:docname="youtube_music.svg"
   inkscape:version="1.2.1 (9c6d41e410, 2022-07-14)"
   xmlns:inkscape="http://www.inkscape.org/namespaces/inkscape"
   xmlns:sodipodi="http://sodipodi.sourceforge.net/DTD/sodipodi-0.dtd"
   xmlns="http://www.w3.org/2000/svg"
   xmlns:svg="http://www.w3.org/2000/svg">
  <defs
     id="defs10">
    <clipPath
       clipPathUnits="userSpaceOnUse"
       id="clipPath724">
      <circle
         style="fill:#000000;stroke-width:0.436236;stroke-opacity:0"
         id="circle726"
         cx="12"
         cy="12"
         r="8.4040003" />
    </clipPath>
  </defs>
  <sodipodi:namedview
     id="namedview8"
     pagecolor="#ffffff"
     bordercolor="#666666"
     borderopacity="1.0"
     inkscape:pageshadow="2"
     inkscape:pageopacity="0.0"
     inkscape:pagecheckerboard="0"
     showgrid="false"
     inkscape:zoom="24.542498"
     inkscape:cx="4.6450039"
     inkscape:cy="14.383214"
     inkscape:window-width="3072"
     inkscape:window-height="1694"
     inkscape:window-x="1499"
     inkscape:window-y="-11"
     inkscape:window-maximized="1"
     inkscape:current-layer="svg6"
     inkscape:showpageshadow="2"
     inkscape:deskcolor="#d1d1d1" />
  <path
     fill-rule="evenodd"
     clip-rule="evenodd"
     d="m 22.691442,4.882726 c 0.372721,0.3726728 0.641282,0.8364857 0.778922,1.3452267 0.792721,3.1907818 0.609481,8.2301313 0.01536,11.5440583 -0.13764,0.508801 -0.406201,0.972602 -0.778802,1.345203 -0.37272,0.37272 -0.836521,0.641281 -1.345322,0.778921 -1.862404,0.507962 -9.358339,0.507962 -9.358339,0.507962 0,0 -7.4959584,0 -9.358398,-0.507962 C 2.13611,19.758495 1.6723091,19.489934 1.2996363,19.117214 0.92696356,18.744613 0.65841506,18.280812 0.52075076,17.772011 -0.27655484,14.595125 -0.05798634,9.5526435 0.50535476,6.2433487 0.64303096,5.7345957 0.91156756,5.2707948 1.2842403,4.8981221 1.656913,4.5254373 2.1207259,4.2569008 2.6294669,4.1192365 c 1.8624517,-0.507937 9.3584341,-0.523333 9.3584341,-0.523333 0,0 7.495935,0 9.358339,0.507937 0.508801,0.1376643 0.972602,0.4062128 1.345202,0.7788855 z m -6.871213,7.117634 -6.2184116,3.601687 v -7.20347 z"
     fill="#000000"
     id="path4"
     style="stroke-width:1.2"
     clip-path="url(#clipPath724)" />
</svg>
